<?xml version="1.0" encoding="UTF-8"?>
<svg width="70px" height="60px" viewBox="0 0 70 60" version="1.1" xmlns="http://www.w3.org/2000/svg" xmlns:xlink="http://www.w3.org/1999/xlink">
    <!-- Generator: sketchtool 41.1 (35376) - http://www.bohemiancoding.com/sketch -->
    <title>265ADD13-E8DF-4EEF-8C8A-65375D3B8C3F</title>
    <desc>Created with sketchtool.</desc>
    <defs></defs>
    <g id="Welcome" stroke="none" stroke-width="1" fill="none" fill-rule="evenodd">
        <g id="browser_incompativel" transform="translate(-154.000000, -147.000000)">
            <g id="browser_nao_compativel">
                <g id="logo_browser" transform="translate(154.000000, 147.000000)">
                    <path d="M2.77463934,48.7584231 L2.77463934,16.1149615 L57.9048033,16.1149615 L57.9048033,48.7584231 C57.9048033,50.0541923 56.8593934,51.1053462 55.5707049,51.1053462 L5.1087377,51.1053462 C3.82004918,51.1053462 2.77463934,50.0541923 2.77463934,48.7584231 M5.1087377,6.11342308 L55.5707049,6.11342308 C56.8593934,6.11342308 57.9048033,7.16573077 57.9048033,8.4615 L57.9048033,13.9018846 L2.77463934,13.9018846 L2.77463934,8.4615 C2.77463934,7.16573077 3.82004918,6.11342308 5.1087377,6.11342308 M60.1057869,48.7584231 L60.1057869,8.4615 C60.1057869,5.94265385 58.0746393,3.90034615 55.5707049,3.90034615 L5.1087377,3.90034615 C2.60480328,3.90034615 0.573655738,5.94265385 0.573655738,8.4615 L0.573655738,48.7711154 C0.573655738,51.2888077 2.60480328,53.3311154 5.1087377,53.3311154 L55.5707049,53.3311154 C58.0746393,53.3311154 60.1057869,51.2772692 60.1057869,48.7584231" id="Fill-1" fill="#000000"></path>
                    <path d="M2.77463934,48.7584231 L2.77463934,16.1149615 L57.9048033,16.1149615 L57.9048033,48.7584231 C57.9048033,50.0541923 56.8593934,51.1053462 55.5707049,51.1053462 L5.1087377,51.1053462 C3.82004918,51.1053462 2.77463934,50.0541923 2.77463934,48.7584231 Z M5.1087377,6.11342308 L55.5707049,6.11342308 C56.8593934,6.11342308 57.9048033,7.16573077 57.9048033,8.4615 L57.9048033,13.9018846 L2.77463934,13.9018846 L2.77463934,8.4615 C2.77463934,7.16573077 3.82004918,6.11342308 5.1087377,6.11342308 Z M60.1057869,48.7584231 L60.1057869,8.4615 C60.1057869,5.94265385 58.0746393,3.90034615 55.5707049,3.90034615 L5.1087377,3.90034615 C2.60480328,3.90034615 0.573655738,5.94265385 0.573655738,8.4615 L0.573655738,48.7711154 C0.573655738,51.2888077 2.60480328,53.3311154 5.1087377,53.3311154 L55.5707049,53.3311154 C58.0746393,53.3311154 60.1057869,51.2772692 60.1057869,48.7584231 Z" id="Stroke-3" stroke="#000000"></path>
                    <path d="M13.4937049,11.4624231 C13.8953443,11.4624231 14.2797705,11.2939615 14.5632131,11.0089615 C14.8478033,10.7228077 15.0153443,10.3362692 15.0153443,9.93242308 C15.0153443,9.52973077 14.8478033,9.14319231 14.5632131,8.85703846 C14.2797705,8.57203846 13.8953443,8.40357692 13.4937049,8.40357692 C13.0920656,8.40357692 12.7076393,8.57203846 12.4241967,8.85703846 C12.1396066,9.14319231 11.9720656,9.52973077 11.9720656,9.93242308 C11.9720656,10.3362692 12.1396066,10.7228077 12.4241967,11.0089615 C12.7076393,11.3112692 13.0920656,11.4624231 13.4937049,11.4624231" id="Fill-5" fill="#000000"></path>
                    <path d="M13.4937049,11.4624231 C13.8953443,11.4624231 14.2797705,11.2939615 14.5632131,11.0089615 C14.8478033,10.7228077 15.0153443,10.3362692 15.0153443,9.93242308 C15.0153443,9.52973077 14.8478033,9.14319231 14.5632131,8.85703846 C14.2797705,8.57203846 13.8953443,8.40357692 13.4937049,8.40357692 C13.0920656,8.40357692 12.7076393,8.57203846 12.4241967,8.85703846 C12.1396066,9.14319231 11.9720656,9.52973077 11.9720656,9.93242308 C11.9720656,10.3362692 12.1396066,10.7228077 12.4241967,11.0089615 C12.7076393,11.3112692 13.0920656,11.4624231 13.4937049,11.4624231 Z" id="Stroke-7" stroke="#000000"></path>
                    <path d="M18.8425082,11.4624231 C19.2441475,11.4624231 19.6285738,11.2939615 19.9120164,11.0089615 C20.1966066,10.7228077 20.3641475,10.3362692 20.3641475,9.93242308 C20.3641475,9.52973077 20.1966066,9.14319231 19.9120164,8.85703846 C19.6285738,8.57203846 19.2441475,8.40357692 18.8425082,8.40357692 C18.4408689,8.40357692 18.0564426,8.57203846 17.773,8.85703846 C17.4884098,9.14319231 17.3208689,9.52973077 17.3208689,9.93242308 C17.3208689,10.3362692 17.4884098,10.7228077 17.773,11.0089615 C18.0564426,11.3112692 18.4408689,11.4624231 18.8425082,11.4624231" id="Fill-9" fill="#000000"></path>
                    <path d="M18.8425082,11.4624231 C19.2441475,11.4624231 19.6285738,11.2939615 19.9120164,11.0089615 C20.1966066,10.7228077 20.3641475,10.3362692 20.3641475,9.93242308 C20.3641475,9.52973077 20.1966066,9.14319231 19.9120164,8.85703846 C19.6285738,8.57203846 19.2441475,8.40357692 18.8425082,8.40357692 C18.4408689,8.40357692 18.0564426,8.57203846 17.773,8.85703846 C17.4884098,9.14319231 17.3208689,9.52973077 17.3208689,9.93242308 C17.3208689,10.3362692 17.4884098,10.7228077 17.773,11.0089615 C18.0564426,11.3112692 18.4408689,11.4624231 18.8425082,11.4624231 Z" id="Stroke-11" stroke="#000000"></path>
                    <path d="M8.14490164,11.4624231 C8.54654098,11.4624231 8.93096721,11.2939615 9.21440984,11.0089615 C9.499,10.7228077 9.66654098,10.3362692 9.66654098,9.93242308 C9.66654098,9.52973077 9.499,9.14319231 9.21440984,8.85703846 C8.93096721,8.57203846 8.54654098,8.40357692 8.14490164,8.40357692 C7.7432623,8.40357692 7.35883607,8.57203846 7.07539344,8.85703846 C6.79080328,9.14319231 6.6232623,9.52973077 6.6232623,9.93242308 C6.6232623,10.3362692 6.79080328,10.7228077 7.07539344,11.0089615 C7.35883607,11.3112692 7.7432623,11.4624231 8.14490164,11.4624231" id="Fill-13" fill="#000000"></path>
                    <path d="M8.14490164,11.4624231 C8.54654098,11.4624231 8.93096721,11.2939615 9.21440984,11.0089615 C9.499,10.7228077 9.66654098,10.3362692 9.66654098,9.93242308 C9.66654098,9.52973077 9.499,9.14319231 9.21440984,8.85703846 C8.93096721,8.57203846 8.54654098,8.40357692 8.14490164,8.40357692 C7.7432623,8.40357692 7.35883607,8.57203846 7.07539344,8.85703846 C6.79080328,9.14319231 6.6232623,9.52973077 6.6232623,9.93242308 C6.6232623,10.3362692 6.79080328,10.7228077 7.07539344,11.0089615 C7.35883607,11.3112692 7.7432623,11.4624231 8.14490164,11.4624231 Z" id="Stroke-15" stroke="#000000"></path>
                    <path d="M30.3544098,35.2242692 C25.8962131,35.2242692 22.2791639,38.8715769 22.2791639,43.3438846 C22.2791639,43.8192692 22.6658852,44.2081154 23.1386721,44.2081154 C23.6103115,44.2081154 23.9981803,43.8192692 23.9981803,43.3438846 C23.9981803,39.8119615 26.8498197,36.9435 30.3635902,36.9435 C33.8773607,36.9435 36.7301475,39.8119615 36.7301475,43.3438846 C36.7301475,43.8192692 37.1168689,44.2081154 37.5896557,44.2081154 C38.0612951,44.2081154 38.4491639,43.8192692 38.4491639,43.3438846 C38.4296557,38.8611923 34.8126066,35.2242692 30.3544098,35.2242692" id="Fill-17" fill="#000000"></path>
                    <path d="M30.3544098,35.2242692 C25.8962131,35.2242692 22.2791639,38.8715769 22.2791639,43.3438846 C22.2791639,43.8192692 22.6658852,44.2081154 23.1386721,44.2081154 C23.6103115,44.2081154 23.9981803,43.8192692 23.9981803,43.3438846 C23.9981803,39.8119615 26.8498197,36.9435 30.3635902,36.9435 C33.8773607,36.9435 36.7301475,39.8119615 36.7301475,43.3438846 C36.7301475,43.8192692 37.1168689,44.2081154 37.5896557,44.2081154 C38.0612951,44.2081154 38.4491639,43.8192692 38.4491639,43.3438846 C38.4296557,38.8611923 34.8126066,35.2242692 30.3544098,35.2242692 Z" id="Stroke-19" stroke="#000000" stroke-width="0.5"></path>
                    <path d="M45.1572295,40.0658077 L43.4875574,40.0658077 C43.1696885,38.7942692 42.6670656,37.5919615 42.0014918,36.4658077 L43.1788689,35.2819615 C43.546082,34.9138846 43.7388689,34.4281154 43.7388689,33.9146538 C43.7388689,33.4000385 43.5357541,32.9142692 43.1788689,32.5461923 L41.1626393,30.5177308 C40.4098525,29.7608077 39.193459,29.7608077 38.451,30.5177308 L37.273623,31.7015769 C36.153623,31.0323462 34.9567377,30.5373462 33.6932951,30.2073462 L33.6932951,28.5481154 C33.6932951,27.4808077 32.8337869,26.6177308 31.7723115,26.6177308 L28.9264098,26.6177308 C27.8649344,26.6177308 27.0054262,27.4808077 27.0054262,28.5481154 L27.0054262,30.2269615 C25.7419836,30.5477308 24.5450984,31.0519615 23.4250984,31.7211923 L22.2477213,30.5373462 C21.8816557,30.1692692 21.398541,29.9742692 20.8878852,29.9742692 C20.376082,29.9742692 19.8941148,30.1785 19.5269016,30.5373462 L17.5106721,32.5658077 C17.143459,32.9338846 16.9506721,33.4196538 16.9506721,33.9331154 C16.9506721,34.4477308 17.1526393,34.9335 17.5106721,35.3015769 L18.6869016,36.4854231 C18.0213279,37.6104231 17.5290328,38.8138846 17.2008361,40.0854231 L15.5323115,40.0854231 C14.4708361,40.0854231 13.6113279,40.9485 13.6113279,42.0158077 L13.6113279,44.8785 C13.6113279,45.9458077 14.4708361,46.8088846 15.5323115,46.8088846 L17.8962459,46.8088846 C18.3782131,46.8088846 18.7741148,46.4119615 18.7741148,45.9261923 C18.7741148,45.4415769 18.3782131,45.0435 17.8962459,45.0435 L15.5323115,45.0435 C15.435918,45.0435 15.3578852,44.9661923 15.3578852,44.8692692 L15.3578852,42.0065769 C15.3578852,41.9096538 15.435918,41.8311923 15.5323115,41.8311923 L17.8962459,41.8311923 C18.3105082,41.8311923 18.6777213,41.5311923 18.7546066,41.1238846 C19.0541148,39.5904231 19.6519836,38.1446538 20.5206721,36.8442692 C20.7524754,36.4946538 20.7042787,36.0296538 20.4150984,35.7285 L18.7362459,34.0404231 C18.6972295,34.0011923 18.6869016,33.9527308 18.6869016,33.9238846 C18.6869016,33.8950385 18.6972295,33.8465769 18.7362459,33.8073462 L20.7524754,31.7800385 C20.7914918,31.7408077 20.8396885,31.7304231 20.868377,31.7304231 C20.8970656,31.7304231 20.9452623,31.7408077 20.993459,31.7800385 L22.6723115,33.4681154 C22.9718197,33.7681154 23.4354262,33.8073462 23.7831311,33.5742692 C25.0752623,32.7008077 26.5131311,32.1088846 28.0382131,31.7985 C28.4432951,31.7211923 28.7428033,31.3531154 28.7428033,30.9354231 L28.7428033,28.5481154 C28.7428033,28.4511923 28.8196885,28.3738846 28.916082,28.3738846 L31.7631311,28.3738846 C31.8595246,28.3738846 31.9364098,28.4511923 31.9364098,28.5481154 L31.9364098,30.9261923 C31.9364098,31.3427308 32.235918,31.7119615 32.641,31.7892692 C34.166082,32.0904231 35.6039508,32.6915769 36.8972295,33.5650385 C37.2437869,33.7981154 37.7073934,33.7496538 38.0069016,33.4577308 L39.6857541,31.7696538 C39.753459,31.7015769 39.8590328,31.7015769 39.9267377,31.7696538 L41.9441148,33.7981154 C41.9819836,33.8361923 41.9923115,33.8846538 41.9923115,33.9146538 C41.9923115,33.9435 41.9819836,33.9919615 41.9441148,34.0404231 L40.2652623,35.7285 C39.9657541,36.0296538 39.9267377,36.4946538 40.158541,36.8442692 C41.0272295,38.1446538 41.615918,39.5904231 41.9246066,41.1238846 C42.0014918,41.5311923 42.3687049,41.8311923 42.7829672,41.8311923 L45.1480492,41.8311923 C45.2444426,41.8311923 45.3213279,41.9096538 45.3213279,42.0065769 L45.3213279,44.8692692 C45.3213279,44.9661923 45.2444426,45.0435 45.1480492,45.0435 L42.7829672,45.0435 C42.301,45.0435 41.9050984,45.4415769 41.9050984,45.9261923 C41.9050984,46.4119615 42.301,46.8088846 42.7829672,46.8088846 L45.1480492,46.8088846 C46.2095246,46.8088846 47.0678852,45.9458077 47.0678852,44.8785 L47.0678852,42.0158077 C47.0678852,40.9288846 46.2095246,40.0658077 45.1572295,40.0658077" id="Fill-21" fill="#000000"></path>
                    <path d="M45.1572295,40.0658077 L43.4875574,40.0658077 C43.1696885,38.7942692 42.6670656,37.5919615 42.0014918,36.4658077 L43.1788689,35.2819615 C43.546082,34.9138846 43.7388689,34.4281154 43.7388689,33.9146538 C43.7388689,33.4000385 43.5357541,32.9142692 43.1788689,32.5461923 L41.1626393,30.5177308 C40.4098525,29.7608077 39.193459,29.7608077 38.451,30.5177308 L37.273623,31.7015769 C36.153623,31.0323462 34.9567377,30.5373462 33.6932951,30.2073462 L33.6932951,28.5481154 C33.6932951,27.4808077 32.8337869,26.6177308 31.7723115,26.6177308 L28.9264098,26.6177308 C27.8649344,26.6177308 27.0054262,27.4808077 27.0054262,28.5481154 L27.0054262,30.2269615 C25.7419836,30.5477308 24.5450984,31.0519615 23.4250984,31.7211923 L22.2477213,30.5373462 C21.8816557,30.1692692 21.398541,29.9742692 20.8878852,29.9742692 C20.376082,29.9742692 19.8941148,30.1785 19.5269016,30.5373462 L17.5106721,32.5658077 C17.143459,32.9338846 16.9506721,33.4196538 16.9506721,33.9331154 C16.9506721,34.4477308 17.1526393,34.9335 17.5106721,35.3015769 L18.6869016,36.4854231 C18.0213279,37.6104231 17.5290328,38.8138846 17.2008361,40.0854231 L15.5323115,40.0854231 C14.4708361,40.0854231 13.6113279,40.9485 13.6113279,42.0158077 L13.6113279,44.8785 C13.6113279,45.9458077 14.4708361,46.8088846 15.5323115,46.8088846 L17.8962459,46.8088846 C18.3782131,46.8088846 18.7741148,46.4119615 18.7741148,45.9261923 C18.7741148,45.4415769 18.3782131,45.0435 17.8962459,45.0435 L15.5323115,45.0435 C15.435918,45.0435 15.3578852,44.9661923 15.3578852,44.8692692 L15.3578852,42.0065769 C15.3578852,41.9096538 15.435918,41.8311923 15.5323115,41.8311923 L17.8962459,41.8311923 C18.3105082,41.8311923 18.6777213,41.5311923 18.7546066,41.1238846 C19.0541148,39.5904231 19.6519836,38.1446538 20.5206721,36.8442692 C20.7524754,36.4946538 20.7042787,36.0296538 20.4150984,35.7285 L18.7362459,34.0404231 C18.6972295,34.0011923 18.6869016,33.9527308 18.6869016,33.9238846 C18.6869016,33.8950385 18.6972295,33.8465769 18.7362459,33.8073462 L20.7524754,31.7800385 C20.7914918,31.7408077 20.8396885,31.7304231 20.868377,31.7304231 C20.8970656,31.7304231 20.9452623,31.7408077 20.993459,31.7800385 L22.6723115,33.4681154 C22.9718197,33.7681154 23.4354262,33.8073462 23.7831311,33.5742692 C25.0752623,32.7008077 26.5131311,32.1088846 28.0382131,31.7985 C28.4432951,31.7211923 28.7428033,31.3531154 28.7428033,30.9354231 L28.7428033,28.5481154 C28.7428033,28.4511923 28.8196885,28.3738846 28.916082,28.3738846 L31.7631311,28.3738846 C31.8595246,28.3738846 31.9364098,28.4511923 31.9364098,28.5481154 L31.9364098,30.9261923 C31.9364098,31.3427308 32.235918,31.7119615 32.641,31.7892692 C34.166082,32.0904231 35.6039508,32.6915769 36.8972295,33.5650385 C37.2437869,33.7981154 37.7073934,33.7496538 38.0069016,33.4577308 L39.6857541,31.7696538 C39.753459,31.7015769 39.8590328,31.7015769 39.9267377,31.7696538 L41.9441148,33.7981154 C41.9819836,33.8361923 41.9923115,33.8846538 41.9923115,33.9146538 C41.9923115,33.9435 41.9819836,33.9919615 41.9441148,34.0404231 L40.2652623,35.7285 C39.9657541,36.0296538 39.9267377,36.4946538 40.158541,36.8442692 C41.0272295,38.1446538 41.615918,39.5904231 41.9246066,41.1238846 C42.0014918,41.5311923 42.3687049,41.8311923 42.7829672,41.8311923 L45.1480492,41.8311923 C45.2444426,41.8311923 45.3213279,41.9096538 45.3213279,42.0065769 L45.3213279,44.8692692 C45.3213279,44.9661923 45.2444426,45.0435 45.1480492,45.0435 L42.7829672,45.0435 C42.301,45.0435 41.9050984,45.4415769 41.9050984,45.9261923 C41.9050984,46.4119615 42.301,46.8088846 42.7829672,46.8088846 L45.1480492,46.8088846 C46.2095246,46.8088846 47.0678852,45.9458077 47.0678852,44.8785 L47.0678852,42.0158077 C47.0678852,40.9288846 46.2095246,40.0658077 45.1572295,40.0658077 Z" id="Stroke-23" stroke="#000000" stroke-width="0.3"></path>
                    <path d="M6.98508197,59.8806923 C6.58918033,59.8806923 6.19327869,59.7295385 5.89032787,59.4283846 C5.27868852,58.8191538 5.27295082,57.828 5.87770492,57.213 L62.1668852,0.464538462 C62.7727869,-0.151615385 63.7585246,-0.155076923 64.3701639,0.453 C64.9818033,1.06107692 64.987541,2.05338462 64.3827869,2.66723077 L8.09245902,59.4156923 C7.78721311,59.7260769 7.38672131,59.8806923 6.98508197,59.8806923" id="Fill-25" fill="#000000"></path>
                    <path d="M11.4096557,59.8806923 C11.0137541,59.8806923 10.6178525,59.7295385 10.3149016,59.4283846 C9.7032623,58.8191538 9.69752459,57.828 10.3022787,57.213 L66.591459,0.464538462 C67.1973607,-0.151615385 68.1830984,-0.155076923 68.7947377,0.453 C69.406377,1.06107692 69.4121148,2.05338462 68.8073607,2.66723077 L12.5170328,59.4156923 C12.2117869,59.7260769 11.8112951,59.8806923 11.4096557,59.8806923" id="Fill-27" fill="#FFFFFF"></path>
                </g>
            </g>
        </g>
    </g>
</svg>