<?xml version="1.0" encoding="UTF-8"?>
<svg width="17px" height="16px" viewBox="0 0 17 16" version="1.1" xmlns="http://www.w3.org/2000/svg" xmlns:xlink="http://www.w3.org/1999/xlink">
    <!-- Generator: sketchtool 40.1 (33804) - http://www.bohemiancoding.com/sketch -->
    <title>C66CBFB8-12CB-4CBA-B8B1-381BC3025A80</title>
    <desc>Created with sketchtool.</desc>
    <defs>
        <polygon id="path-1" points="0.000283333334 15.5099636 16.15 15.5099636 16.15 0.000436363636 0.000283333334 0.000436363636 0.000283333334 15.5099636"></polygon>
    </defs>
    <g id="Welcome" stroke="none" stroke-width="1" fill="none" fill-rule="evenodd">
        <g id="Desktop-HD" transform="translate(-606.000000, -1514.000000)">
            <g id="Page-1-Copy-7" transform="translate(606.000000, 1514.000000)">
                <mask id="mask-2" fill="white">
                    <use xlink:href="#path-1"></use>
                </mask>
                <g id="Clip-2"></g>
                <path d="M9.0797,13.0738909 C8.98903333,13.3240727 8.93236667,13.4433455 8.94795,13.4724364 L2.08561667,13.4331636 L4.73478333,7.59607273 L11.5631167,7.59607273 L9.0797,13.0738909 Z M8.9777,14.4920727 L8.9777,13.4782545 C8.98336667,13.4768 8.98903333,13.4753455 8.9947,13.4724364 L8.9777,14.4920727 Z M14.1287,0.000436363636 L7.17428333,0.000436363636 C6.05228333,0.000436363636 5.40911667,1.27025455 5.24478333,1.64698182 L0.000283333334,13.2077091 L0.000283333334,13.4331636 C0.000283333334,14.5778909 0.90695,15.5102545 2.02328333,15.5102545 L8.9777,15.5102545 C10.3051167,15.5102545 10.7315333,14.3495273 10.9072,13.8637091 L16.1502833,2.30298182 L16.1502833,2.07607273 C16.1502833,0.931345455 15.2436167,0.000436363636 14.1287,0.000436363636 L14.1287,0.000436363636 Z" id="Fill-1" fill="#FF7584" mask="url(#mask-2)"></path>
            </g>
        </g>
    </g>
</svg>