<?xml version="1.0" encoding="UTF-8"?>
<svg width="17px" height="19px" viewBox="0 0 17 19" version="1.1" xmlns="http://www.w3.org/2000/svg" xmlns:xlink="http://www.w3.org/1999/xlink">
    <!-- Generator: sketchtool 40.1 (33804) - http://www.bohemiancoding.com/sketch -->
    <title>95C5F153-9369-4D35-8D57-530912C4F559</title>
    <desc>Created with sketchtool.</desc>
    <defs>
        <polygon id="path-1" points="16.8604741 0.376090909 -1.92174462e-13 0.376090909 -1.92174462e-13 18.4545455 16.8608519 18.4545455 16.8608519 0.376090909 16.8604741 18.4542909 -5.91438593e-05 18.4542909 -5.91438593e-05 0.375836364 16.8604741 0.375836364"></polygon>
    </defs>
    <g id="Welcome" stroke="none" stroke-width="1" fill="none" fill-rule="evenodd">
        <g id="Desktop-HD" transform="translate(-654.000000, -1080.000000)">
            <g id="Group-2" transform="translate(654.000000, 1080.000000)">
                <g id="Group">
                    <g id="Page-1">
                        <path d="M3.44098889,8.28481818 L9.36643333,8.28481818 C9.6271,8.28481818 9.83865556,8.071 9.83865556,7.80754545 C9.83865556,7.54409091 9.6271,7.33027273 9.36643333,7.33027273 L3.44098889,7.33027273 C3.18032222,7.33027273 2.96876667,7.54409091 2.96876667,7.80754545 C2.96876667,8.071 3.18032222,8.28481818 3.44098889,8.28481818" id="Fill-1" fill="#2EADEC"></path>
                        <path d="M7.47760741,9.85084545 L3.44105185,9.85084545 C3.18038519,9.85084545 2.96882963,10.0646636 2.96882963,10.3281182 C2.96882963,10.5915727 3.18038519,10.8053909 3.44105185,10.8053909 L7.47760741,10.8053909 C7.73827407,10.8053909 7.94982963,10.5915727 7.94982963,10.3281182 C7.94982963,10.0646636 7.73827407,9.85084545 7.47760741,9.85084545" id="Fill-3" fill="#2EADEC"></path>
                        <path d="M14.1329815,13.8664273 L12.8460185,15.1677909 L12.8567222,12.1011545 C12.8573519,11.8555182 12.6602778,11.6550636 12.4172407,11.6537909 C12.2995,11.6537909 12.1880556,11.7008818 12.1049444,11.7848818 C12.0218333,11.8682455 11.9758704,11.9789727 11.9752407,12.0973364 L11.9651667,15.2231545 L10.6227963,13.8664273 C10.4565741,13.6984273 10.1669444,13.6984273 10.0000926,13.8664273 C9.8282037,14.0401545 9.8282037,14.3220636 10.0000926,14.4957909 L12.066537,16.5843364 C12.1521667,16.6715182 12.2655,16.7147909 12.3782037,16.7147909 C12.4909074,16.7147909 12.6036111,16.6715182 12.6898704,16.5843364 L14.7563148,14.4957909 C14.9282037,14.3220636 14.9282037,14.0401545 14.7556852,13.8664273 C14.5850556,13.6933364 14.3048704,13.6933364 14.1329815,13.8664273" id="Fill-7" fill="#2EADEC"></path>
                        <g id="Group-11" transform="translate(0.000000, 0.260400)">
                            <mask id="mask-2" fill="white">
                                <use xlink:href="#path-1"></use>
                            </mask>
                            <g id="Clip-10"></g>
                        </g>
                        <path d="M12.3781407,17.8237818 C10.3929185,17.8237818 8.77728889,16.1915091 8.77728889,14.1844182 C8.77728889,12.1779636 10.3929185,10.5450545 12.3781407,10.5450545 C14.363363,10.5450545 15.9789926,12.1779636 15.9789926,14.1844182 C15.9789926,16.1915091 14.363363,17.8237818 12.3781407,17.8237818 L12.3781407,17.8237818 Z M8.1696963,15.7288727 L0.951622222,15.7288727 L0.951622222,5.93205455 L4.65888148,5.93205455 C4.91954815,5.93205455 5.1311037,5.71823636 5.1311037,5.45478182 L5.1311037,1.59078182 L11.8662519,1.59078182 L11.8662519,9.68596364 C9.63484444,9.94369091 7.89580741,11.8616909 7.89580741,14.1844182 C7.89580741,14.7272364 7.99528889,15.2458727 8.1696963,15.7288727 L8.1696963,15.7288727 Z M0.951622222,4.86869091 L4.18665926,1.59969091 L4.18665926,4.97750909 L0.951622222,4.97750909 L0.951622222,4.86869091 Z M12.8106963,9.67641818 L12.8106963,1.11350909 C12.8106963,0.850054545 12.5997704,0.636236364 12.3384741,0.636236364 L3.99965926,0.636236364 C3.87436296,0.636236364 3.75473333,0.686509091 3.66595556,0.776236364 L0.134362963,4.3456 C0.0248074074,4.45569091 -0.018637037,4.6116 0.00717777778,4.76114545 L0.00717777778,16.2061455 C0.00717777778,16.4696 0.218733333,16.6834182 0.4794,16.6834182 L8.64254815,16.6834182 C9.44595556,17.9058727 10.8198074,18.7146909 12.3781407,18.7146909 C14.8500667,18.7146909 16.8604741,16.6827818 16.8604741,14.1844182 C16.8604741,11.8343273 15.0805111,9.89723636 12.8106963,9.67641818 L12.8106963,9.67641818 Z" id="Fill-9" fill="#2EADEC"></path>
                    </g>
                </g>
            </g>
        </g>
    </g>
</svg>