<?xml version="1.0" encoding="UTF-8"?>
<svg width="78px" height="51px" viewBox="0 0 78 51" version="1.1" xmlns="http://www.w3.org/2000/svg" xmlns:xlink="http://www.w3.org/1999/xlink">
    <!-- Generator: Sketch 41.1 (35376) - http://www.bohemiancoding.com/sketch -->
    <title>Page 1</title>
    <desc>Created with Sketch.</desc>
    <defs>
        <polygon id="path-1" points="0 0.472934805 0 50.2834932 77.5833103 50.2834932 77.5833103 0.472934805 2.80397114e-20 0.472934805"></polygon>
        <polygon id="path-3" points="0.449076438 6.14856623 3.16726839 6.14856623 3.16726839 0.292946494 0.449076438 0.292946494"></polygon>
        <path d="M3.22275862,0.472383117 C1.44965517,0.472383117 0,1.92263377 0,3.69493247 L0,3.69493247 L0,47.0617714 C0,48.8333805 1.44965517,50.2836312 3.22275862,50.2836312 L3.22275862,50.2836312 L74.3613793,50.2836312 C76.1337931,50.2836312 77.5834483,48.8333805 77.5834483,47.0617714 L77.5834483,47.0617714 L77.5834483,3.69493247 C77.5834483,1.92263377 76.1337931,0.472383117 74.3613793,0.472383117 L74.3613793,0.472383117 L3.22275862,0.472383117 Z" id="path-5"></path>
    </defs>
    <g id="Page-1" stroke="none" stroke-width="1" fill="none" fill-rule="evenodd">
        <g id="Letter" transform="translate(-694.000000, -216.000000)">
            <g id="cpf-copy-4" transform="translate(552.000000, 76.000000)">
                <g id="Page-1" transform="translate(142.000000, 140.000000)">
                    <g id="Group-3" transform="translate(0.000000, 0.217020)">
                        <mask id="mask-2" fill="white">
                            <use xlink:href="#path-1"></use>
                        </mask>
                        <g id="Clip-2"></g>
                        <path d="M74.3612414,50.2834932 L3.22262069,50.2834932 C1.4502069,50.2834932 -0.000137931034,48.8332426 -0.000137931034,47.0616335 L-0.000137931034,3.69479455 C-0.000137931034,1.92249584 1.4502069,0.472934805 3.22262069,0.472934805 L74.3612414,0.472934805 C76.1336552,0.472934805 77.5833103,1.92249584 77.5833103,3.69479455 L77.5833103,47.0616335 C77.5833103,48.8332426 76.1336552,50.2834932 74.3612414,50.2834932" id="Fill-1" fill="#254998" mask="url(#mask-2)"></path>
                    </g>
                    <g id="Group-126" opacity="0.579879982" transform="translate(0.000000, 0.217020)">
                        <path d="M60.9514483,41.4128969 L59.7624828,41.7549436 L59.7383448,41.5301306 C60.9562759,39.81438 60.9321379,38.8737514 64.1624828,38.6172164 L68.6604138,38.262067 C67.3466207,39.2778631 66.6452414,41.4266891 64.4142069,42.5355826 L65.745931,43.1127865 C63.6093793,44.3768423 63.1169655,44.6188956 60.9514483,42.9059034 L60.9514483,41.4128969 L60.9514483,41.4128969 Z" id="Stroke-4" stroke="#003C74" stroke-width="0.378" stroke-linecap="round" stroke-linejoin="round"></path>
                        <path d="M66.2267586,30.3912678 L67.7371034,27.0714834 L67.9012414,29.4306405 L68.1764138,30.8029652 L68.9722759,30.6105639 L69.081931,29.2665132 C68.301931,28.0569366 68.0867586,26.7170236 68.2577931,25.2881509 L72.0467586,21.8304444 L72.0736552,22.7083184 C73.0350345,22.0959444 73.2543448,21.071873 74.0508966,20.7056899 C74.1791724,22.1414587 74.0688276,23.5772275 73.6115862,25.013686 L75.6157241,23.8882418 C74.8577931,25.0357535 74.7274483,28.7782691 70.5915862,29.2940977 C69.8371034,29.4361574 69.4343448,29.9292288 69.1915862,30.5836691 C70.9764138,30.551947 72.5695172,30.4243691 73.4743448,29.9526756 C73.0674483,30.6064262 72.3074483,31.2098353 71.3881379,31.7904873 L73.1998621,31.9559938 L70.1798621,34.0958548 C71.0674483,34.6261652 70.3357241,35.8695327 72.101931,35.9343561 C71.5529655,36.3177795 70.6005517,36.4005327 69.466069,36.3460535 L70.1529655,36.9494626 C69.0591724,37.1597938 68.0798621,37.1873782 67.3522759,36.8122301 L66.2267586,30.3912678 L66.2267586,30.3912678 Z" id="Stroke-6" stroke="#003C74" stroke-width="0.378" stroke-linecap="round" stroke-linejoin="round"></path>
                        <path d="M62.5742069,12.197001 C62.7211034,12.1735543 62.8404138,12.246653 62.8404138,12.3611283 C62.8404138,12.474914 62.7211034,12.5873205 62.5742069,12.6107673 C62.4273103,12.634214 62.308,12.5604257 62.308,12.44664 C62.308,12.3328543 62.4273103,12.2204478 62.5742069,12.197001 L62.5742069,12.197001 Z M65.7328276,13.1045283 L65.348,12.6659361 L64.9093793,12.0894218 L64.470069,11.8701257 L64.1955862,11.9797738 C63.7783448,12.4542257 63.2762759,11.5804894 64.168,11.6777244 L64.3873103,11.5956608 C63.8528276,10.9198426 63.3838621,10.4495283 63.1521379,10.7177868 L62.7404138,10.7177868 C61.9045517,11.2212023 61.8983448,10.1481686 62.7404138,10.5260751 L63.0424828,10.4433218 L62.9328276,10.2509205 L62.1086897,9.92197636 L61.8342069,9.89439195 C60.6142069,10.5177997 61.0411034,9.03375818 61.7776552,9.72888545 L62.1086897,9.75715948 L62.2183448,9.56544779 L60.7086897,8.27518675 C59.8638621,8.22139714 60.7452414,7.26766597 60.8755862,8.13657506 L62.0542069,9.15375039 L62.6445517,9.57717117 L62.9990345,9.67440623 L63.1521379,9.40063091 L63.0307586,8.92686857 C62.4714483,8.30621922 63.5838621,7.91245169 63.250069,8.92686857 L63.3445517,9.45511013 L63.3873103,9.82267247 L63.5086897,10.2240257 L63.8935172,10.4709062 L64.3045517,10.881914 L64.5245517,11.1018997 L64.5797241,10.6081387 L64.4873103,10.175753 C64.1162759,9.66475169 64.9783448,9.38270104 64.7342069,10.2302322 L64.8266207,10.7998504 L64.7666207,11.2936114 L65.0190345,11.6508296 L65.2948966,12.1052829 L65.6224828,12.2769958 L65.6266207,12.3052699 C65.4762759,10.7743348 65.7466207,9.53441532 66.2266207,8.44000364 C66.1714483,10.0867932 67.228,10.2495413 67.5997241,11.1839634 C68.0569655,11.037766 67.7183448,10.0136945 67.9838621,9.51027896 C68.4686897,10.7543361 69.3935172,11.5866958 69.685931,12.5011192 C69.8328276,13.7451764 69.3748966,15.6478114 69.4935172,16.8366997 C69.750069,15.5650582 70.4183448,14.9526842 70.5093793,13.8734439 C71.6190345,15.2174945 71.745931,16.4250023 71.8266207,17.7697426 L69.2742069,17.4125244 L68.9445517,16.6718829 L68.4783448,15.9588257 C67.810069,15.5560932 67.0321379,15.8119387 66.3093793,15.6567764 C64.0031724,15.354727 64.5797241,13.7362114 63.1797241,13.4341621 C63.490069,12.7755842 64.3507586,12.7024855 65.7597241,13.214866 C65.7424828,13.1224582 65.725931,13.0314296 65.7107586,12.9410906 L65.7328276,13.1045283 L65.7328276,13.1045283 Z M64.7438621,16.7270517 L64.0852414,15.4374803 C65.7597241,16.388453 68.2583448,15.7209101 69.1093793,17.3856296 L64.7438621,16.7270517 L64.7438621,16.7270517 Z" id="Stroke-8" stroke="#003C74" stroke-width="0.378" stroke-linecap="round" stroke-linejoin="round"></path>
                        <path d="M41.544,17.2067447 C41.7226207,16.5116174 41.1564138,15.9957888 41.141931,15.1220525 C40.6798621,15.846833 39.7557241,16.4971356 40.024,17.3853538 L41.544,17.2067447 L41.544,17.2067447 Z M42.0205517,17.1170953 C41.3053793,14.1586668 43.064,13.7766226 43.1233103,11.90502 C43.241931,12.5429096 43.4012414,13.0945979 43.5998621,13.4538849 C44.1412414,12.6298005 44.8612414,12.9677096 45.224,11.7415823 C45.244,12.8284083 45.7853793,13.4835382 45.2833103,15.0027499 C45.8398621,14.4717499 46.5750345,14.6703577 47.2205517,14.4365797 L46.7881379,15.4199642 C47.2205517,15.3054888 47.6522759,15.3006616 48.0846897,15.3454862 C47.8764138,15.7523564 47.9508966,16.0550953 47.6971034,16.402659 L42.0205517,17.1170953 L42.0205517,17.1170953 Z" id="Stroke-10" stroke="#003C74" stroke-width="0.378" stroke-linecap="round" stroke-linejoin="round"></path>
                        <path d="M37.826,23.9094129 C38.3266897,24.7417726 37.6970345,25.9120414 38.4170345,26.9636973 C38.9963448,28.0312142 39.9363448,27.8319168 41.1522069,28.0946583 L42.7901379,27.9932856 C44.5342759,27.4360804 44.388069,26.7892258 44.6811724,25.3438025 C44.3991034,25.4617258 43.9156552,25.4279349 43.5328966,25.6982622 C43.3246207,25.1355401 43.5046207,24.438344 43.4149655,23.8080401 L43.1784138,23.588744 C43.0149655,23.8197635 42.9363448,24.2693895 42.4356552,24.4328271 C42.5591034,23.8928622 42.2949655,23.5039219 42.4018621,22.8122427 L41.0170345,21.4792258 L40.8984138,21.8502362 C40.4653103,21.2654466 40.0322069,20.770996 39.5991034,20.3655051 C39.1432414,21.3047544 39.2273793,22.2219362 39.8522069,23.1163609 C39.3232414,22.8405168 38.8501379,22.4805401 38.5011724,21.9350583 C38.0004828,22.9867142 39.1032414,23.8197635 38.8218621,24.4328271 C38.4673793,24.1004349 38.1356552,23.9266531 37.826,23.9094129 L37.826,23.9094129 Z" id="Stroke-12" stroke="#003C74" stroke-width="0.378" stroke-linecap="round" stroke-linejoin="round"></path>
                        <polygon id="Stroke-14" stroke="#7698C4" stroke-width="0.377" stroke-linecap="round" stroke-linejoin="round" points="55.3870345 34.0526852 57.356 34.02648 57.4615172 41.8873488 55.4918621 41.913554"></polygon>
                        <path d="M56.4198621,41.4553769 L56.4198621,34.159299" id="Stroke-16" stroke="#7698C4" stroke-width="0.378" stroke-linecap="round" stroke-linejoin="round"></path>
                        <path d="M56.6292414,6.12394714 L61.629931,17.1363355 L73.612,18.9251848 L64.8057931,27.1301692 L66.5726897,38.9783653 L56.3975172,33.1180562 L45.6561379,38.8294095 L47.8554483,27.0177627 L39.2126897,18.4376303 L51.3264828,16.8880757 L56.6292414,6.12394714 Z M56.6382069,3.76341078 L62.3637241,16.3756952 L75.914069,18.3666004 L65.7457931,27.5273848 L68.0382069,40.9844419 L56.4471724,34.2145368 L44.3623448,40.6506705 L46.8023448,27.1529264 L37.2271724,17.7445718 L50.7526897,16.0164082 L56.6382069,3.76341078 Z" id="Fill-18" fill="#466BA7"></path>
                        <path d="M56.6292414,6.12394714 L61.629931,17.1363355 L73.612,18.9251848 L64.8057931,27.1301692 L66.5726897,38.9783653 L56.3975172,33.1180562 L45.6561379,38.8294095 L47.8554483,27.0177627 L39.2126897,18.4376303 L51.3264828,16.8880757 L56.6292414,6.12394714 L56.6292414,6.12394714 Z M56.6382069,3.76341078 L62.3637241,16.3756952 L75.914069,18.3666004 L65.7457931,27.5273848 L68.0382069,40.9844419 L56.4471724,34.2145368 L44.3623448,40.6506705 L46.8023448,27.1529264 L37.2271724,17.7445718 L50.7526897,16.0164082 L56.6382069,3.76341078 L56.6382069,3.76341078 Z" id="Stroke-20" stroke="#254998" stroke-width="0.272"></path>
                        <path d="M56.5991724,8.40090273 L60.906069,18.1030313 L71.7157241,19.5450066 L63.7164138,26.7162651 L65.1646897,37.0342157 L56.4729655,31.9483391 L46.9102069,37.0349053 L48.9984828,26.6535105 L41.341931,19.1388261 L52.0315862,17.673404 L56.5991724,8.40090273 Z M56.6295172,6.12380922 L61.6295172,17.1368871 L73.6115862,18.9250469 L64.8053793,27.1300313 L66.5729655,38.978917 L56.3971034,33.1186079 L45.6564138,38.8299612 L47.8550345,27.0176248 L39.2122759,18.4374923 L51.3267586,16.8886274 L56.6295172,6.12380922 Z" id="Fill-22" fill="#254998"></path>
                        <path d="M56.5991724,8.40090273 L60.906069,18.1030313 L71.7157241,19.5450066 L63.7164138,26.7162651 L65.1646897,37.0342157 L56.4729655,31.9483391 L46.9102069,37.0349053 L48.9984828,26.6535105 L41.341931,19.1388261 L52.0315862,17.673404 L56.5991724,8.40090273 L56.5991724,8.40090273 Z M56.6295172,6.12380922 L61.6295172,17.1368871 L73.6115862,18.9250469 L64.8053793,27.1300313 L66.5729655,38.978917 L56.3971034,33.1186079 L45.6564138,38.8299612 L47.8550345,27.0176248 L39.2122759,18.4374923 L51.3267586,16.8886274 L56.6295172,6.12380922 L56.6295172,6.12380922 Z" id="Stroke-24" stroke="#254998" stroke-width="0.378" stroke-linecap="round" stroke-linejoin="round"></path>
                        <path d="M51.1982759,42.8774225 C49.9665517,43.8759783 48.592069,43.977351 47.0444828,42.9960355 C47.1458621,42.7312251 47.7534483,42.5008952 48.1086207,42.2533251 C47.0168966,41.8595575 46.4596552,41.2520108 46.267931,40.4982666 C46.7237931,40.3575861 47.247931,40.3686199 47.5851724,40.3803432 C47.0334483,40.2562134 46.6624138,39.9755419 46.4706897,39.5362601 L47.4327586,39.0300861 C48.2327586,39.379029 49.1665517,39.2376588 49.8306897,40.0762251 C49.8196552,39.370064 49.6624138,38.7066588 49.1555172,38.1356614 L49.6113793,37.8991251 C51.1782759,38.5066718 52.1527586,39.6038419 52.4141379,41.2913186 C52.047931,41.0892627 51.8506897,41.1527069 51.5451724,40.82859 L51.51,42.6595056 L51.1982759,42.8774225 L51.1982759,42.8774225 Z" id="Stroke-26" stroke="#003C74" stroke-width="0.378" stroke-linecap="round" stroke-linejoin="round"></path>
                        <path d="M49.6113103,41.8647986 L50.354069,41.5448194 M49.6451034,38.2870999 L50.1009655,38.5567375 L50.2864828,38.9794687 L50.5395862,39.4015103 L51.1306207,40.1104297 L51.3837241,40.5145414 M46.8251034,40.802109 L47.4837241,41.1400181 L47.9230345,41.1731194 L48.4802759,41.4262064 L49.5775172,41.3420739 L50.3368276,41.5275791 L51.4016552,41.7744596 M51.1644138,39.4856427 L51.1306207,40.1104297 M48.1595862,42.2702895 L48.749931,42.3709726 L49.8644138,42.5061362 M51.3857931,41.6717077 L50.6913103,41.0214051 L50.2361379,40.7007362 L49.8982069,40.7007362 L49.509931,40.5317817 L49.2230345,40.5145414 L48.514069,40.2276635 L48.294069,39.9918168 M50.3037241,38.9794687 L49.8982069,38.8443051 M47.9057931,41.6455025 L48.4968276,41.4262064 M49.8478621,42.9619687 L50.1851034,42.4723453 M47.1630345,39.7890713 L47.5009655,39.6711479 L47.1630345,39.3001375 M49.2733793,40.9710635 L49.6616552,41.3593142 M47.6864828,43.0123103 L48.0747586,42.860596 L48.7837241,42.8268051 L50.1009655,42.4557947 L51.4292414,42.2427051 M47.5009655,39.7049388 L48.294069,39.9918168 L48.0409655,39.5697752" id="Stroke-28" stroke="#003C74" stroke-width="0.378" stroke-linecap="round" stroke-linejoin="round"></path>
                        <path d="M43.2626207,37.6630025 C43.7750345,38.309857 43.7633103,39.412544 44.5964138,39.4015103 L44.8157241,38.1864168 C44.2984828,38.0112557 44.304,37.3140596 43.2626207,37.6630025" id="Fill-30" fill="#254998"></path>
                        <path d="M43.2626207,37.6630025 C43.7750345,38.309857 43.7633103,39.412544 44.5964138,39.4015103 L44.8157241,38.1864168 C44.2984828,38.0112557 44.304,37.3140596 43.2626207,37.6630025 L43.2626207,37.6630025 Z" id="Stroke-32" stroke="#003C74" stroke-width="0.378" stroke-linecap="round" stroke-linejoin="round"></path>
                        <path d="M44.664069,34.7098839 C44.0392414,34.5885125 43.8709655,35.4801787 42.9426897,35.5608631 C41.6592414,35.6939579 41.0006207,34.4085242 39.7509655,34.2878423 C39.7509655,33.9533813 39.9985517,33.7113281 40.3585517,33.5120306 C38.8447586,32.1334995 39.3233793,31.3969956 38.8054483,30.3384436 L40.999931,31.2507982 L40.764069,29.7143462 C41.5344138,29.8695086 42.3854483,30.2177618 43.3806207,30.9128891 C42.9806207,29.5467709 43.6323448,29.2798917 44.3937241,28.0434203 L45.0185517,29.7819281 L45.542,28.3309878 L46.302,30.0184644 L45.4578621,34.6926436 L44.664069,34.7098839 L44.664069,34.7098839 Z" id="Stroke-34" stroke="#003C74" stroke-width="0.378" stroke-linecap="round" stroke-linejoin="round"></path>
                        <path d="M43.9552414,38.2199318 C44.3207586,38.1585565 44.298,38.8385123 44.698,38.8440292" id="Stroke-36" stroke="#003C74" stroke-width="0.378" stroke-linecap="round" stroke-linejoin="round"></path>
                        <path d="M44.968069,37.4437753 C44.6018621,36.9989766 44.1349655,37.1624143 43.8708276,36.9210506 C44.3377241,36.4534948 44.9287586,35.817674 45.2384138,35.9749052 L44.968069,37.4437753 Z" id="Fill-38" fill="#254998"></path>
                        <path d="M44.968069,37.4437753 C44.6018621,36.9989766 44.1349655,37.1624143 43.8708276,36.9210506 C44.3377241,36.4534948 44.9287586,35.817674 45.2384138,35.9749052 L44.968069,37.4437753 L44.968069,37.4437753 Z" id="Stroke-40" stroke="#003C74" stroke-width="0.378" stroke-linecap="round" stroke-linejoin="round"></path>
                        <path d="M44.4447586,36.7685778 C44.6075172,36.8589168 44.8213103,36.4934232 45.0357931,36.6844453" id="Stroke-42" stroke="#003C74" stroke-width="0.378" stroke-linecap="round" stroke-linejoin="round"></path>
                        <path d="M45.0524138,34.4905878 C45.237931,34.4905878 45.3917241,34.6271306 45.4193103,34.8043605 L45.3758621,35.0436553 C45.3124138,35.1567514 45.1910345,35.2332982 45.0524138,35.2332982 C44.8475862,35.2332982 44.6806897,35.0664125 44.6806897,34.8615982 C44.6806897,34.6574735 44.8475862,34.4905878 45.0524138,34.4905878 L45.0524138,34.4905878 Z M45.4241379,33.4444488 C45.5096552,33.4444488 45.5882759,33.4734125 45.6510345,33.5223748 L45.5337931,34.169919 C45.4993103,34.1809527 45.462069,34.1864696 45.4241379,34.1864696 C45.2193103,34.1864696 45.0524138,34.0195839 45.0524138,33.8154592 C45.0524138,33.6106449 45.2193103,33.4444488 45.4241379,33.4444488 L45.4241379,33.4444488 Z M45.0358621,35.2505384 C45.1551724,35.2505384 45.2586207,35.3194995 45.3082759,35.419493 L45.2441379,35.7739527 C45.1896552,35.8256735 45.1165517,35.8573956 45.0358621,35.8573956 C44.8682759,35.8573956 44.7317241,35.7208527 44.7317241,35.553967 C44.7317241,35.3863917 44.8682759,35.2505384 45.0358621,35.2505384 L45.0358621,35.2505384 Z" id="Stroke-44" stroke="#003C74" stroke-width="0.378" stroke-linecap="round" stroke-linejoin="round"></path>
                        <path d="M41.6925517,33.8324926 L42.1649655,33.7476705 M45.0353103,29.8499926 C44.4166897,31.1209445 44.5401379,32.3250043 45.4070345,33.4607926 M40.4091034,32.904277 L40.916,32.9546186 M41.033931,31.2671419 C41.3063448,32.782216 42.456,33.8697316 44.6642759,34.4393497 C43.6601379,34.0621329 42.6394483,34.2738432 41.6518621,33.3049406 C41.176,33.1615017 40.7677241,32.8373848 40.4263448,32.3339692 C40.0553103,32.2029432 39.7504828,31.9153757 39.513931,31.4698874 M43.4146207,30.8961316 C43.7635862,31.3230004 44.1966897,31.6043614 44.6808276,31.7057342 M43.9215172,33.6635381 L44.4111724,33.697329 M45.7953103,30.5589121 C45.3925517,31.2671419 45.4208276,32.3753458 45.8125517,32.5836082 M43.6677241,31.9422705 L43.8366897,32.9380679 M42.6884138,32.532577 L43.2284138,32.5498173 M44.2587586,30.1706614 L44.3773793,29.7989614 M40.4601379,33.5794056 C41.2615172,34.6062355 42.2353103,34.7151939 44.1573793,34.8117394 M42.3173793,34.9462134 L42.8911724,34.7269173 M45.238069,30.9637134 L45.5249655,31.3174835 M41.6422069,30.8451004 L42.3173793,31.4023056 M43.9718621,28.9383277 L44.1911724,29.2589965 M45.4911724,29.9168848 L45.6263448,30.7444173 M40.2911724,34.0517887 L40.8822069,34.0007575 M44.2249655,28.7528225 C44.1153103,29.6362134 44.1491034,30.4844342 44.5794483,31.233351 M43.938069,30.5416718 L44.3435862,30.7106264 M45.238069,32.1615666 L45.7449655,32.65119 M41.9622069,31.7395251 L42.5704828,31.8236575 M40.3925517,31.9588212 L40.4263448,32.3305212 M42.2325517,30.8119991 C42.4097931,31.7622822 42.9897931,32.4656848 43.8877241,32.9208277 C44.2449655,33.6083692 44.6670345,34.08489 45.2042759,34.1862627" id="Stroke-46" stroke="#003C74" stroke-width="0.378" stroke-linecap="round" stroke-linejoin="round"></path>
                        <path d="M42.0217241,28.5184929 C42.2775862,28.5184929 42.4858621,28.7184799 42.4858621,28.9639812 C42.4858621,29.2087929 42.2775862,29.4087799 42.0217241,29.4087799 C41.7658621,29.4087799 41.5575862,29.2087929 41.5575862,28.9639812 C41.5575862,28.7184799 41.7658621,28.5184929 42.0217241,28.5184929" id="Fill-48" fill="#254998"></path>
                        <path d="M42.0217241,28.5184929 C42.2775862,28.5184929 42.4858621,28.7184799 42.4858621,28.9639812 C42.4858621,29.2087929 42.2775862,29.4087799 42.0217241,29.4087799 C41.7658621,29.4087799 41.5575862,29.2087929 41.5575862,28.9639812 C41.5575862,28.7184799 41.7658621,28.5184929 42.0217241,28.5184929 L42.0217241,28.5184929 Z" id="Stroke-50" stroke="#163459" stroke-width="0.378" stroke-linecap="round" stroke-linejoin="round"></path>
                        <path d="M42.6467586,28.9405344 C42.9026207,28.9405344 43.1108966,29.1405214 43.1108966,29.3853331 C43.1108966,29.6308344 42.9026207,29.8308214 42.6467586,29.8308214 C42.3908966,29.8308214 42.181931,29.6308344 42.181931,29.3853331 C42.181931,29.3846435 42.1826207,29.3825747 42.1826207,29.3811955 C42.3577931,29.3191305 42.484,29.1570721 42.486069,28.9674292 C42.5357241,28.950189 42.5902069,28.9405344 42.6467586,28.9405344 L42.6467586,28.9405344 Z M42.0529655,29.4074006 C42.1515862,29.4798097 42.2157241,29.5949747 42.2157241,29.7232422 C42.2157241,29.9418487 42.0302069,30.1197682 41.801931,30.1197682 C41.5743448,30.1197682 41.3888276,29.9418487 41.3888276,29.7232422 C41.3888276,29.5198071 41.5502069,29.350163 41.7564138,29.3287851 C41.8322759,29.3791266 41.9233103,29.4087799 42.021931,29.4087799 C42.0322759,29.4087799 42.0426207,29.4087799 42.0529655,29.4074006 L42.0529655,29.4074006 Z M42.4943448,27.9109461 C42.7502069,27.9109461 42.9584828,28.1109331 42.9584828,28.3564344 C42.9584828,28.6012461 42.7502069,28.8012331 42.4943448,28.8012331 C42.4805517,28.8012331 42.4667586,28.8005435 42.4529655,28.7991643 C42.3895172,28.6467604 42.2405517,28.5357331 42.0633103,28.5205617 C42.0433103,28.472289 42.0315862,28.4205682 42.0302069,28.3674682 C41.9488276,28.4957357 41.8012414,28.581937 41.6336552,28.581937 C41.5915862,28.581937 41.5515862,28.5764201 41.5129655,28.5667656 C41.566069,28.6026253 41.6115862,28.6495188 41.6446897,28.7039981 C41.5902069,28.7770968 41.5577931,28.8667461 41.5577931,28.9639812 C41.5577931,29.0460448 41.5812414,29.1232812 41.621931,29.1894838 C41.5371034,29.3018903 41.3998621,29.374989 41.2446897,29.374989 C40.9888276,29.374989 40.7805517,29.1750019 40.7805517,28.9301903 C40.7805517,28.684689 40.9888276,28.4847019 41.2446897,28.4847019 C41.2867586,28.4847019 41.3274483,28.4902188 41.366069,28.500563 C41.2474483,28.419189 41.1695172,28.2860942 41.1695172,28.1364487 C41.1695172,27.891637 41.3777931,27.69165 41.6336552,27.69165 C41.8853793,27.69165 42.0915862,27.8854305 42.0971034,28.1254149 C42.1791724,27.9971474 42.3267586,27.9109461 42.4943448,27.9109461 L42.4943448,27.9109461 Z" id="Stroke-52" stroke="#003C74" stroke-width="0.378" stroke-linecap="round" stroke-linejoin="round"></path>
                        <path d="M44.1069655,16.8492506 C44.4752414,16.0982649 44.8904138,15.4610649 45.2986897,14.9879922 M46.1035172,16.5665104 C46.455931,16.223774 46.6890345,15.8417299 46.8035172,15.4196883 M44.598,13.2605182 C44.5207586,15.1252247 43.5235172,15.3314182 43.3621379,16.8492506 M43.1083448,13.3943026 C43.2076552,15.0176455 42.2938621,15.5534727 42.5573103,17.0582026 M40.918,15.8513844 C41.1366207,16.4920325 40.7145517,16.5368571 40.680069,17.3257714 M44.9262759,16.7299481 C45.4524828,15.8913818 45.9345517,16.0355104 46.3711034,15.1962545 M40.5752414,16.3134234 L40.7842069,16.804426 M40.9483448,16.432726 L41.1269655,16.2982519 M42.5124828,16.6113351 L42.8552414,16.3879013 M42.5717931,15.8072494 L42.3635172,15.4348597 M42.8697241,15.0921234 L43.2876552,14.8238649 M42.9448966,14.7349052 L42.6614483,14.1839065 M43.9283448,14.5411247 L44.135931,14.9286857 L44.5683448,14.7797299 M44.3448966,13.4239558 L44.5235172,13.8259987 L44.7773103,13.6032545 M45.4924828,15.2707325 L45.5662759,16.0451649 L45.9097241,16.0155117 M46.4607586,16.432726 L47.5635172,15.8072494 M46.8628276,15.7769065 L46.818,16.2389455 L47.3097241,16.2092922 M43.6297241,13.4687805 C44.1214483,14.8638623 43.2876552,15.9306896 43.3766207,16.9389 M39.5476552,23.6563948 L39.5821379,24.8714883 L40.1393793,25.7148818 L40.3248966,26.2217455 L40.8483448,26.8796338 L41.3207586,27.7237169 M39.9028276,23.1840117 C41.1014483,24.0839532 40.9835172,24.6797766 41.5235172,25.4280039 C41.6662759,26.1817481 41.838,26.9354922 41.7938621,27.689926 M43.2290345,24.4832377 C43.0911034,25.6735052 42.7083448,26.803087 42.0297241,27.8581909 M44.1235172,26.0527909 C43.6228276,26.4575922 43.3752414,27.2168532 42.975931,27.6223442 L42.6717931,27.9092221 M41.6248966,26.1369234 C41.8890345,25.6024753 42.035931,24.8997623 42.418,24.5342688 M38.3324828,25.4114532 L38.6531724,25.6983312 M38.8393793,26.8120519 L39.3117931,26.9299753 M40.798,26.778261 L40.9662759,26.2045052 L40.9324828,25.6810909 M40.1731724,25.6810909 L40.2235172,25.0569935 M39.5821379,24.1287779 L39.1255862,23.4708896 M40.6966207,23.8922416 L40.2911034,22.5088831 L40.2235172,21.6648 M39.9028276,22.0192597 L40.3248966,22.5930156 M40.9662759,24.2639416 L41.3883448,23.4874403 L42.215931,22.8971338 M40.8986897,22.0027091 L41.1352414,23.3522766 L41.4055862,23.4536494 L41.5062759,22.8633429 L41.4393793,22.542674 L41.1855862,22.1882143 M41.3717931,25.1749169 L41.7938621,24.094987 M42.2497241,26.6093065 L42.4855862,27.0313481 L42.9924828,26.9134247 M42.6890345,25.394213 L42.9083448,25.9679688 L43.2793793,25.7824636 M43.5497241,25.8672857 L43.5497241,26.7279195 M43.9042069,26.272087 L43.8876552,25.9010766 M43.0097241,27.5885532 L43.3642069,27.5885532 M40.3248966,26.272087 L39.8352414,26.0017597 M39.615931,24.8204571 L39.1766207,24.6521922 M38.2138621,24.6859831 C38.760069,25.3383545 38.6138621,26.0072766 39.1938621,26.7948117 L39.8690345,27.5037312 L40.200069,27.5389013 L41.1352414,27.9768039 C40.4848966,27.5678649 39.8752414,27.1127221 39.3966207,26.5079338 C38.9966207,25.8817675 38.8393793,25.1163 38.8311034,24.4404818" id="Stroke-54" stroke="#003C74" stroke-width="0.378" stroke-linecap="round" stroke-linejoin="round"></path>
                        <path d="M45.982069,12.9418492 C45.4758621,10.9681843 48.062069,10.0247973 48.4468966,7.85873104 C48.737931,8.47593234 48.5917241,9.37242584 48.7958621,9.71033494 C49.2503448,9.46000636 49.5882759,9.18623104 49.8096552,8.88900896 L49.862069,9.15106091 C50.6489655,8.03320247 51.8544828,7.57943883 52.6937931,6.47882065 C52.722069,6.90982714 52.682069,7.34014403 52.5710345,7.77115052 C53.1248276,7.56771545 53.7482759,7.48565182 54.2317241,7.16015571 C53.4924138,8.20284662 53.5448276,9.0710661 52.8510345,9.50069338 L53.217931,9.5882739 C52.6655172,10.1861661 52.1972414,10.8826726 51.3131034,11.0730051 L51.4875862,11.1950661 C50.9048276,11.3812609 50.4096552,11.7129635 50.1068966,12.3653349 C50.6255172,12.5342895 51.0503448,12.4936025 51.4875862,12.7673778 C48.9082759,14.6727713 48.677931,13.7093856 47.0131034,13.9376466 L46.4013793,13.867996 L45.982069,12.9418492 L45.982069,12.9418492 Z" id="Stroke-56" stroke="#003C74" stroke-width="0.378" stroke-linecap="round" stroke-linejoin="round"></path>
                        <path d="M46.6718621,13.7632442 C46.8884138,13.7632442 47.0649655,13.924613 47.0649655,14.1225312 C47.0649655,14.321139 46.8884138,14.4825078 46.6718621,14.4825078 C46.4553103,14.4825078 46.2787586,14.321139 46.2787586,14.1225312 C46.2787586,13.924613 46.4553103,13.7632442 46.6718621,13.7632442 L46.6718621,13.7632442 Z" id="Stroke-58" stroke="#003C74" stroke-width="0.378" stroke-linecap="round" stroke-linejoin="round"></path>
                        <path d="M45.9644138,14.060811 C46.1692414,14.060811 46.3368276,14.1980435 46.3368276,14.3669981 C46.3368276,14.535263 46.1692414,14.6731851 45.9644138,14.6731851 C45.7595862,14.6731851 45.592,14.535263 45.592,14.3669981 C45.592,14.1980435 45.7595862,14.060811 45.9644138,14.060811 L45.9644138,14.060811 Z" id="Stroke-60" stroke="#003C74" stroke-width="0.378" stroke-linecap="round" stroke-linejoin="round"></path>
                        <path d="M45.8278621,12.8783361 C46.0395862,12.8783361 46.2126897,13.0528075 46.2126897,13.2665868 C46.2126897,13.4810556 46.0395862,13.655527 45.8278621,13.655527 C45.6161379,13.655527 45.4430345,13.4810556 45.4430345,13.2665868 C45.4430345,13.0528075 45.6161379,12.8783361 45.8278621,12.8783361 L45.8278621,12.8783361 Z" id="Stroke-62" stroke="#003C74" stroke-width="0.378" stroke-linecap="round" stroke-linejoin="round"></path>
                        <path d="M46.1093103,13.3744418 C46.33,13.3744418 46.5106897,13.5302938 46.5106897,13.7220055 C46.5106897,13.9130275 46.33,14.0688795 46.1093103,14.0688795 C45.887931,14.0688795 45.707931,13.9130275 45.707931,13.7220055 C45.707931,13.5302938 45.887931,13.3744418 46.1093103,13.3744418 L46.1093103,13.3744418 Z" id="Stroke-64" stroke="#003C74" stroke-width="0.378" stroke-linecap="round" stroke-linejoin="round"></path>
                        <path d="M46.2786897,13.9905397 C46.3131724,13.9905397 46.3407586,14.020193 46.3407586,14.0567423 C46.3407586,14.0932917 46.3131724,14.1229449 46.2786897,14.1229449 C46.2442069,14.1229449 46.2166207,14.0932917 46.2166207,14.0567423 C46.2166207,14.020193 46.2442069,13.9905397 46.2786897,13.9905397 M46.1628276,14.6277397 C46.1973103,14.6277397 46.2248966,14.6567034 46.2248966,14.6932527 C46.2248966,14.7298021 46.1973103,14.7594553 46.1628276,14.7594553 C46.1283448,14.7594553 46.1007586,14.7298021 46.1007586,14.6932527 C46.1007586,14.6567034 46.1283448,14.6277397 46.1628276,14.6277397 M46.8662759,14.3960306 C46.900069,14.3960306 46.9283448,14.4256839 46.9283448,14.4622332 C46.9283448,14.498093 46.900069,14.5277462 46.8662759,14.5277462 C46.8317931,14.5277462 46.8042069,14.498093 46.8042069,14.4622332 C46.8042069,14.4256839 46.8317931,14.3960306 46.8662759,14.3960306 M45.8731724,13.4443683 C45.9076552,13.4443683 45.9352414,13.4740216 45.9352414,13.5105709 C45.9352414,13.5471203 45.9076552,13.5767735 45.8731724,13.5767735 C45.8393793,13.5767735 45.8111034,13.5471203 45.8111034,13.5105709 C45.8111034,13.4740216 45.8393793,13.4443683 45.8731724,13.4443683" id="Fill-66" fill="#1E130F"></path>
                        <path d="M46.2786897,13.9905397 C46.3131724,13.9905397 46.3407586,14.020193 46.3407586,14.0567423 C46.3407586,14.0932917 46.3131724,14.1229449 46.2786897,14.1229449 C46.2442069,14.1229449 46.2166207,14.0932917 46.2166207,14.0567423 C46.2166207,14.020193 46.2442069,13.9905397 46.2786897,13.9905397 L46.2786897,13.9905397 Z M46.1628276,14.6277397 C46.1973103,14.6277397 46.2248966,14.6567034 46.2248966,14.6932527 C46.2248966,14.7298021 46.1973103,14.7594553 46.1628276,14.7594553 C46.1283448,14.7594553 46.1007586,14.7298021 46.1007586,14.6932527 C46.1007586,14.6567034 46.1283448,14.6277397 46.1628276,14.6277397 L46.1628276,14.6277397 Z M46.8662759,14.3960306 C46.900069,14.3960306 46.9283448,14.4256839 46.9283448,14.4622332 C46.9283448,14.498093 46.900069,14.5277462 46.8662759,14.5277462 C46.8317931,14.5277462 46.8042069,14.498093 46.8042069,14.4622332 C46.8042069,14.4256839 46.8317931,14.3960306 46.8662759,14.3960306 L46.8662759,14.3960306 Z M45.8731724,13.4443683 C45.9076552,13.4443683 45.9352414,13.4740216 45.9352414,13.5105709 C45.9352414,13.5471203 45.9076552,13.5767735 45.8731724,13.5767735 C45.8393793,13.5767735 45.8111034,13.5471203 45.8111034,13.5105709 C45.8111034,13.4740216 45.8393793,13.4443683 45.8731724,13.4443683 L45.8731724,13.4443683 Z" id="Stroke-68" stroke="#163459" stroke-width="0.124"></path>
                        <path d="M50.403931,10.7758519 L51.348069,9.65799351 L52.2563448,9.1863 L53.3225517,8.15533247 M50.543931,9.04630909 L50.6315172,9.3787013 M52.5535862,7.77121948 C51.4253103,8.15395325 50.5715172,9.12975195 50.0018621,10.7234416 M49.0232414,12.1557623 L49.6873793,11.5792481 L49.7046207,11.1778948 M47.9749655,10.3041584 L47.9749655,9.81522468 M46.3846207,12.1557623 L46.3666897,11.6144182 M48.0266897,13.4308519 L48.4811724,13.6756636 M48.9011724,12.3302338 L49.3377241,12.2957532 M49.3025517,13.0115688 L49.7570345,13.1515597 L50.4563448,12.9943286 M52.0294483,7.98086104 L52.0991034,7.63122857 M47.1356552,13.3260312 C48.8308276,13.6232532 49.4777241,12.9943286 50.123931,12.3826442 M50.2818621,11.335126 L49.6522069,11.5971779 M47.2928966,10.8110221 L47.4149655,10.3565688 M46.8384138,11.335126 L46.8211724,10.9854935 M48.7611724,9.74557403 C47.9687586,10.6241377 46.4073793,10.8399857 46.1742759,13.2736208 M51.5922069,8.76701688 L51.348069,9.25595065 L51.3653103,9.64006364 M48.3763448,11.0206636 L48.323931,10.5834506 M49.8446207,9.22147013 C49.4515172,10.4600104 49.2742759,11.5364922 49.0997931,12.0219779 C48.7756552,12.9260571 47.2011724,12.997087 46.5942759,13.728074 M49.4073793,10.8806727 C49.9873793,10.6068974 50.6397931,10.7696455 51.3128966,11.0551442 M50.8756552,10.9158429 C50.9032414,10.4772506 52.4094483,10.3462247 52.886,9.50076234 M51.7501379,10.391739 L52.2391034,10.3565688 M52.4487586,8.9938987 L52.5363448,8.46979481 M46.4715172,13.5184325 L46.7687586,13.0639792 L47.0308276,12.7150364 L47.5025517,12.3654039 L47.7646207,11.8068195 L48.3942759,11.0206636 L49.0756552,10.129687 L49.0756552,10.1124468 M48.9535862,13.2736208 L49.4597931,13.4480922 M47.6777241,11.963361 L47.6073793,11.3875364" id="Stroke-70" stroke="#003C74" stroke-width="0.378" stroke-linecap="round" stroke-linejoin="round"></path>
                        <polygon id="Stroke-72" stroke="#003C74" stroke-width="0.378" stroke-linecap="round" stroke-linejoin="round" points="59.6037241 6.51730091 60.1057931 6.85245156 60.6375172 6.97520221 60.4657931 7.40345026 60.7706207 7.90479701 60.1837241 7.99168792 59.6816552 8.31649442 59.5182069 7.90341779 59.0871724 7.5655087 59.512 7.16553468"></polygon>
                        <path d="M63.9297241,8.52923922 C64.2007586,8.5678574 64.3276552,8.57337429 64.620069,8.44027948 C64.6883448,8.61061325 64.9228276,8.73543273 65.0717931,8.78439506 C65.0076552,8.93679896 65.0248966,9.11196 65.0793793,9.29746519 C64.9035172,9.42987039 64.7711034,9.62778857 64.7311034,9.81743143 C64.4538621,10.0987925 64.3221379,9.73881584 64.1166207,9.92914831 C63.9793793,9.62847818 63.7869655,9.40711325 63.5414483,9.26712234 C63.795931,9.10437429 63.9331724,8.86438987 63.9297241,8.52923922 L63.9297241,8.52923922 Z" id="Stroke-74" stroke="#003C74" stroke-width="0.377" stroke-linecap="round" stroke-linejoin="round"></path>
                        <path d="M62.1736552,7.40310545 C62.4246897,7.28311325 62.6502069,7.1141587 62.821931,6.83693532 C62.9750345,6.9417561 63.1281379,7.01761325 63.2812414,6.9748574 C63.3136552,7.13967429 63.4267586,7.27759636 63.5777931,7.40310545 C63.5033103,7.61481584 63.5033103,7.85548987 63.5764138,8.03754701 C63.501931,8.43200416 63.1874483,8.2023639 63.121931,8.47889766 C62.8350345,8.3023574 62.5488276,8.22443143 62.261931,8.24443013 C62.3853793,7.9637587 62.366069,7.68308727 62.1736552,7.40310545 L62.1736552,7.40310545 Z" id="Stroke-76" stroke="#003C74" stroke-width="0.378" stroke-linecap="round" stroke-linejoin="round"></path>
                        <path d="M59.9354483,9.62565078 C60.1292414,9.43187026 60.209931,9.33394558 60.2782069,9.02017286 C60.4554483,9.06706636 60.6961379,8.95465987 60.8244138,8.86432091 C60.9085517,9.00707026 61.0588966,9.09809883 61.2402759,9.16568065 C61.2409655,9.38635597 61.3202759,9.61047935 61.4478621,9.75529753 C61.5071724,10.1463066 61.1395862,10.0366586 61.169931,10.3145716 C60.8457931,10.2442313 60.554069,10.2656092 60.2947586,10.3787053 C60.3168276,10.0773456 60.2064828,9.82287935 59.9354483,9.62565078 L59.9354483,9.62565078 Z" id="Stroke-78" stroke="#003C74" stroke-width="0.378" stroke-linecap="round" stroke-linejoin="round"></path>
                        <path d="M62.6917241,12.172244 C62.8013793,11.9936349 62.8434483,11.906744 62.8386207,11.6605531 C62.9793103,11.6646908 63.137931,11.5378025 63.217931,11.4481531 C63.3062069,11.5391817 63.4337931,11.5805583 63.5806897,11.5984882 C63.62,11.7626155 63.7186207,11.915709 63.84,12.000531 C63.9537931,12.2812025 63.6606897,12.2646518 63.7324138,12.4667077 C63.4786207,12.4715349 63.2648276,12.5391168 63.0924138,12.6694531 C63.0551724,12.4411921 62.9275862,12.2715479 62.6917241,12.172244 L62.6917241,12.172244 Z" id="Stroke-80" stroke="#003C74" stroke-width="0.378" stroke-linecap="round" stroke-linejoin="round"></path>
                        <path d="M61.1697931,10.9026713 C61.2794483,10.7240622 61.3222069,10.6371713 61.318069,10.3909804 C61.458069,10.3951181 61.6166897,10.2682297 61.6966897,10.1785804 C61.7849655,10.269609 61.9125517,10.3109856 62.0587586,10.3289155 C62.0987586,10.4930427 62.1973793,10.6461362 62.3187586,10.7309583 C62.4325517,11.0116297 62.1394483,10.9950791 62.2104828,11.1971349 C61.9573793,11.2019622 61.7435862,11.269544 61.5704828,11.3991908 C61.533931,11.1716194 61.4063448,11.0019752 61.1697931,10.9026713 L61.1697931,10.9026713 Z" id="Stroke-82" stroke="#003C74" stroke-width="0.378" stroke-linecap="round" stroke-linejoin="round"></path>
                        <path d="M61.3737241,12.7442758 C61.4178621,12.5394616 61.4295862,12.4429161 61.3433793,12.2125862 C61.4771724,12.1698304 61.5854483,11.9974278 61.6302759,11.8864005 C61.7433793,11.9436382 61.8785517,11.9395005 62.022,11.9084681 C62.1144138,12.0498382 62.2585517,12.1622447 62.4006207,12.2022421 C62.6013103,12.4291239 62.3185517,12.5104979 62.4537241,12.6773836 C62.2157931,12.7663434 62.0371724,12.9008174 61.9164828,13.0808057 C61.8061379,12.8773706 61.6295862,12.7594473 61.3737241,12.7442758 L61.3737241,12.7442758 Z" id="Stroke-84" stroke="#003C74" stroke-width="0.378" stroke-linecap="round" stroke-linejoin="round"></path>
                        <path d="M61.8511724,12.278513 C61.9518621,12.2433429 62.0615172,12.2964429 62.096,12.3957468 C62.1318621,12.4957403 62.078069,12.6060779 61.9787586,12.6405584 C61.8787586,12.6757286 61.7691034,12.6226286 61.733931,12.5233247 C61.6987586,12.4233312 61.7518621,12.3136831 61.8511724,12.278513" id="Fill-86" fill="#003C74"></path>
                        <path d="M62.8975172,7.41786312 C63.0361379,7.41786312 63.1485517,7.53095922 63.1485517,7.6688813 C63.1485517,7.80680338 63.0361379,7.91989948 62.8975172,7.91989948 C62.7588966,7.91989948 62.6464828,7.80680338 62.6464828,7.6688813 C62.6464828,7.53095922 62.7588966,7.41786312 62.8975172,7.41786312" id="Fill-88" fill="#003C74"></path>
                        <path d="M59.9433103,7.22594455 C60.081931,7.22594455 60.1950345,7.33904065 60.1950345,7.47696273 C60.1950345,7.61488481 60.081931,7.72798091 59.9433103,7.72798091 C59.8053793,7.72798091 59.6922759,7.61488481 59.6922759,7.47696273 C59.6922759,7.33904065 59.8053793,7.22594455 59.9433103,7.22594455" id="Fill-90" fill="#003C74"></path>
                        <path d="M60.6524828,9.42552584 C60.7911034,9.42552584 60.9035172,9.53862195 60.9035172,9.67654403 C60.9035172,9.8144661 60.7911034,9.92756221 60.6524828,9.92756221 C60.5145517,9.92756221 60.4014483,9.8144661 60.4014483,9.67654403 C60.4014483,9.53862195 60.5145517,9.42552584 60.6524828,9.42552584" id="Fill-92" fill="#003C74"></path>
                        <path d="M64.3896552,8.89397416 C64.5275862,8.89397416 64.6406897,9.00707026 64.6406897,9.14499234 C64.6406897,9.28360403 64.5275862,9.39601052 64.3896552,9.39601052 C64.2510345,9.39601052 64.137931,9.28360403 64.137931,9.14499234 C64.137931,9.00707026 64.2510345,8.89397416 64.3896552,8.89397416" id="Fill-94" fill="#003C74"></path>
                        <path d="M61.7897931,10.5919329 C61.8953103,10.5919329 61.9822069,10.6781342 61.9822069,10.7836445 C61.9822069,10.8891549 61.8953103,10.9760458 61.7897931,10.9760458 C61.6842759,10.9760458 61.598069,10.8891549 61.598069,10.7836445 C61.598069,10.6781342 61.6842759,10.5919329 61.7897931,10.5919329" id="Fill-96" fill="#003C74"></path>
                        <path d="M63.2965517,11.8910209 C63.4027586,11.8910209 63.4882759,11.9772222 63.4882759,12.0827326 C63.4882759,12.1889326 63.4027586,12.2744443 63.2965517,12.2744443 C63.1903448,12.2744443 63.1041379,12.1889326 63.1041379,12.0827326 C63.1041379,11.9772222 63.1903448,11.8910209 63.2965517,11.8910209" id="Fill-98" fill="#003C74"></path>
                        <path d="M71.6351724,27.0989299 C72.7448276,25.9148688 73.2255172,24.1584312 73.5296552,22.2420039 M69.6034483,29.2112065 L69.7951724,28.6077974 L69.8227586,27.9216351 L70.18,27.0989299 L70.2896552,26.3307039 L70.6468966,25.2052597 L70.8386207,24.6839143 L70.9213793,23.7784558 L70.8117241,23.0653987 M73.0475862,26.6755091 L73.4758621,26.4851766 L73.8806897,25.8424597 L74.4531034,25.365939 M72.0475862,26.5803429 L72.5717241,26.4134571 M72.4048276,25.1756065 L72.5717241,25.7948766 L73,25.5562714 M72.8813793,23.9377558 L73.0710345,24.4853065 L73.5,24.1046416 M73.1662069,22.7716247 L73.3806897,23.2233195 L73.8337931,22.8667909 M70.9275862,23.7474234 L71.5468966,23.032987 M70.5468966,24.8425247 L70.642069,25.1997429 L71.1896552,24.6521922 M69.9986207,25.6045442 L70.2606897,26.4134571 L70.5703448,26.2231247 M70.0462069,26.7948117 L70.2131034,27.1278935 L70.8082759,26.8182584 M69.5462069,27.6037247 L69.8082759,27.9133597 M68.6413793,26.8423948 L69.0703448,27.2471961 M69.0455172,29.1512104 L69.022069,26.8423948 L69.3317241,26.3424273 L69.4986207,24.9376909 L69.4986207,24.4853065 M68.9275862,24.9135545 L68.8551724,25.5328247 L68.8082759,26.1996779 L69.1172414,26.7706753 M68.4510345,25.8183234 L68.8082759,26.2465714 M66.6406897,31.5558818 L67.6648276,29.8890935 M67.26,30.5318104 L67.0689655,30.1270091 L67.2124138,29.6746247 M66.6165517,31.8420701 C66.9262069,31.2938299 67.457931,30.9366117 68.2124138,30.7704156 M66.7834483,32.9840649 L67.26,32.6034 L68.4268966,32.0082662 L69.1889655,31.7227675 L70.1413793,31.3889961 L71.4758621,30.9848844 M67.4744828,31.7227675 L67.2124138,32.6744299 L67.8075862,32.7461494 M68.6413793,31.2221104 L68.26,32.0792961 L68.9275862,32.1027429 M70.117931,31.0083312 L69.7365517,31.5317455 L70.117931,31.6510481 M70.9275862,30.8414455 L70.5468966,31.2938299 L70.9275862,31.4607156 M66.8786207,33.8171143 C69.582069,34.0674429 70.2013793,32.2185974 71.4517241,31.7462143 M70.2131034,34.102613 C69.0455172,34.3019104 67.942069,34.277774 66.902069,34.0315831 C67.76,34.817739 68.0455172,36.0314532 69.4744828,36.3886714 M69.9510345,32.9130351 L71.0227586,32.7461494 L71.6186207,32.4840974 M69.5462069,33.2461169 L70.1655172,33.3412831 M68.1648276,34.2694987 L68.9034483,34.6743 L69.4986207,35.0791013 L70.0937931,35.6742351 M69.3317241,34.9129052 L69.8793103,34.8887688 M68.7365517,34.5791338 L68.8317241,35.1025481 M69.7841379,35.3646 L69.76,35.8652571 M67.0689655,34.7460195 L67.5937931,34.8653221 M67.26,35.7459545 L67.7124138,36.0314532 L68.1648276,36.4597013 L68.522069,36.4597013 M72.0737931,22.6812857 C71.937931,24.029474 72.1303448,27.5547623 70.2462069,29.3601623 C73.3641379,28.0436961 72.7268966,26.8603247 73.6393103,25.0411325 M64.4289655,38.9271273 L63.4813793,39.3119299 L63.2151724,39.5339844 L62.2682759,39.800174 L61.3510345,40.3173818 M63.422069,38.9864338 L63.2448276,39.4898494 M61.0110345,41.6186766 L61.78,40.968374 L62.4013793,40.4656481 L63.1413793,40.1553234 L64.0441379,39.8146558 L65.197931,39.4008896 M60.9813793,42.4027636 L61.4544828,42.2848403 L61.8248276,42.1069208 L62.3572414,41.9889974 L62.9489655,41.6779831 L63.6448276,41.2345636 L64.6213793,40.9097571 L65.2275862,40.4794403 L66.2489655,40.0511922 M62.1206897,41.1904286 L61.7655172,42.1510558 M62.6827586,41.855213 L63.1565517,41.9145195 L63.8517241,42.136574 M63.6,41.2345636 L63.8068966,40.6139143 M64.6503448,40.9097571 L65.4641379,41.1607753 M65.1386207,40.4953013 L65.42,40.0511922 M61.0255172,42.9792779 C62.217931,43.0496182 63.2462069,43.3482195 64.4289655,42.5358584 M62.8455172,43.1130623 L64.2662069,43.2461571 M63.2303448,43.1275442 L63.5262069,43.7192299 M61.04,40.8345896 L61.3806897,40.2139403 L61.7655172,39.5926013 M67.8903448,12.1274883 L68.3627586,12.5109117 L68.5841379,12.0978351 M65.7041379,14.5480208 L66.2503448,14.533539 L66.1324138,14.2087325 M66.6786207,12.5405649 L67.24,12.9246779 L67.3282759,12.1274883 L67.5944828,11.4185688 M68.1703448,13.618426 L68.6137931,14.046674 L68.8351724,13.618426 M66.4131034,15.0500571 L66.9889655,14.9914403 M64.9951724,16.5409948 L65.3344828,16.4672065 M66.4572414,10.9606675 L66.8268966,11.5516636 L66.8558621,12.1861052 L67.1813793,12.8950247 L67.2544828,13.234313 L67.4468966,13.5887727 L67.3875862,14.1204623 L68.0524138,15.3603818 L67.0772414,14.9321338 L66.4572414,14.3266558 L65.8372414,13.4853312 M65.0537931,13.618426 L65.6158621,14.1942506 L66.1910345,14.5038857 L66.8855172,14.9466156 L67.9931034,15.3603818 M64.7586207,13.7363494 L65.3344828,13.8687545 L65.3055172,13.6480792 M66.2944828,11.2268571 L66.7972414,11.5806273 L66.8855172,11.2268571 M70.3124138,16.4382429 L70.6517241,16.8216662 L71.0510345,16.261013 M64.9062069,16.1134364 L65.2462069,16.4382429 L66.3393103,16.6154727 L67.017931,16.9251078 L67.3731034,16.8216662 L67.7572414,17.0285494 M65.8813793,16.7333961 L66.4131034,16.689261 L66.1172414,16.2899766 M70.5337931,15.0204039 L70.682069,15.7148416 L70.6372414,16.8071844 L70.6075862,17.2057792 L70.7703448,17.441626 M66.6344828,13.5591195 L67.4027586,14.1052909 M68.037931,10.9020506 L68.3331034,12.4226416 L68.6137931,14.0315026 L68.7468966,15.0355753 L68.8944828,15.3307286 L68.8648276,16.3934182" id="Stroke-100" stroke="#003C74" stroke-width="0.378" stroke-linecap="round" stroke-linejoin="round"></path>
                        <g id="Group-104" transform="translate(54.482759, 44.135065)">
                            <mask id="mask-4" fill="white">
                                <use xlink:href="#path-3"></use>
                            </mask>
                            <g id="Clip-103"></g>
                            <path d="M0.728206897,0.292946494 L3.03924138,0.292946494 C3.19303448,2.48728675 3.27027586,4.14166208 2.90406897,6.06705429 C3.21441379,6.29531532 3.15234483,6.83252182 2.87303448,7.15801792 C2.24268966,7.37662442 1.55027586,7.40696727 0.766827586,7.16353481 C0.324068966,6.81045429 0.362689655,6.2139413 0.766827586,6.00912701 C0.430275862,4.08373481 0.499931034,2.21764909 0.728206897,0.292946494" id="Fill-102" fill="#7698C4" mask="url(#mask-4)"></path>
                        </g>
                        <mask id="mask-6" fill="white">
                            <use xlink:href="#path-5"></use>
                        </mask>
                        <g id="Clip-106"></g>
                        <polygon id="Fill-105" fill="#7698C4" mask="url(#mask-6)" points="54.977931 44.4247013 57.7537931 44.4247013 57.7537931 41.4855818 54.977931 41.4855818"></polygon>
                        <polygon id="Stroke-107" stroke="#254998" stroke-width="0.377" stroke-linecap="round" stroke-linejoin="round" mask="url(#mask-6)" points="54.977931 44.4247013 57.7537931 44.4247013 57.7537931 41.4855818 54.977931 41.4855818"></polygon>
                        <polygon id="Fill-108" fill="#254998" mask="url(#mask-6)" points="56.3601379 41.959689 56.5932414 42.6810214 57.3353103 42.6858487 56.738069 43.1361643 56.9628966 43.8602552 56.3601379 43.4175253 55.7573793 43.8602552 55.9822069 43.1361643 55.3849655 42.6858487 56.1263448 42.6810214"></polygon>
                        <path d="M51.9717931,41.5181314 C51.9876552,41.5264068 52.0035172,41.5346821 52.0186897,41.5429574 C52.0345517,41.5512327 52.0504138,41.5595081 52.0662759,41.5677834 C52.0814483,41.5760587 52.0973103,41.584334 52.1131724,41.593299 C52.1283448,41.6001951 52.1442069,41.60916 52.160069,41.6167457 C52.1752414,41.625021 52.1911034,41.6326068 52.2069655,41.6408821 C52.2221379,41.6484678 52.238,41.6567431 52.2538621,41.6643288 C52.2697241,41.6719145 52.2848966,41.6795003 52.3007586,41.6877756 C52.3166207,41.6946717 52.3317931,41.7022574 52.3476552,41.7105327 C52.3635172,41.7181184 52.3793793,41.7250145 52.3945517,41.7326003 C52.4104138,41.740186 52.4262759,41.7470821 52.4414483,41.7546678 C52.4573103,41.7615639 52.4731724,41.7698392 52.4883448,41.7767353 C52.5042069,41.7836314 52.520069,41.7905275 52.535931,41.7981132 C52.5511034,41.8050094 52.5669655,41.8119055 52.5828276,41.8188016 C52.5986897,41.8263873 52.6138621,41.8325938 52.6297241,41.8394899 C52.6455862,41.846386 52.6607586,41.8532821 52.6766207,41.8594886 C52.6917931,41.8663847 52.7076552,41.8732808 52.7235172,41.8794873 C52.7393793,41.8863834 52.7552414,41.8932795 52.7704138,41.899486 C52.7862759,41.9056925 52.8014483,41.9125886 52.8173103,41.9187951 C52.8331724,41.9243119 52.8490345,41.9312081 52.8642069,41.9374145 C52.880069,41.943621 52.895931,41.9491379 52.9111034,41.956034 C52.9269655,41.9615509 52.9428276,41.9677574 52.9586897,41.9739639 C52.9738621,41.9801704 52.9897241,41.9856873 53.0055862,41.9918938 C53.0207586,41.9974106 53.0366207,42.0029275 53.0524828,42.009134 C53.0676552,42.0139613 53.0835172,42.0201678 53.0993793,42.0256847 C53.1145517,42.0312016 53.1304138,42.0367184 53.1462759,42.0422353 C53.1621379,42.0477522 53.1773103,42.0525795 53.1931724,42.0580964 C53.2090345,42.0636132 53.2242069,42.0684405 53.240069,42.0732678 C53.255931,42.0787847 53.2717931,42.0843016 53.2869655,42.0891288 C53.3028276,42.0939561 53.3186897,42.0987834 53.3338621,42.1043003 C53.3497241,42.1091275 53.3655862,42.1139548 53.3814483,42.1187821 C53.3966207,42.1236094 53.4124828,42.127747 53.4276552,42.1325743 C53.4435172,42.1374016 53.4593793,42.1422288 53.4745517,42.1463665 C53.4904138,42.1511938 53.5062759,42.1553314 53.5221379,42.1594691 C53.5373103,42.1636068 53.5531724,42.168434 53.5690345,42.1725717 C53.5842069,42.1767094 53.600069,42.180847 53.615931,42.1849847 C53.6317931,42.1898119 53.6469655,42.19326 53.6628276,42.1967081 C53.6786897,42.2008457 53.6938621,42.2049834 53.7097241,42.2084314 C53.7255862,42.2125691 53.7414483,42.2167068 53.7566207,42.2194652 L53.7566207,42.2201548 C53.7724828,42.2236029 53.7883448,42.2277405 53.8035172,42.2311886 C53.8193793,42.233947 53.8352414,42.2380847 53.8511034,42.2415327 C53.8662759,42.2442912 53.8821379,42.2484288 53.898,42.2511873 C54.258,42.3263548 54.618,42.3635938 54.978,42.3594561 L54.978,43.4366275 C54.6048966,43.4455925 54.2338621,43.4738665 53.8655862,43.5255873 C53.2255862,43.5848938 52.5938621,43.7324704 51.9717931,44.0221068 L51.9717931,41.5181314 L51.9717931,41.5181314 Z M57.7538621,43.4386964 L57.7538621,42.3573873 C58.0848966,42.3456639 58.4138621,42.3187691 58.740069,42.2732548 C59.380069,42.2139483 60.0124828,42.0663717 60.6345517,41.7760457 L60.6345517,44.2317483 C59.6745517,43.7124717 58.7145517,43.4490405 57.7538621,43.4386964 L57.7538621,43.4386964 Z" id="Stroke-109" stroke="#8FA8D4" stroke-width="0.378" stroke-linecap="round" stroke-linejoin="round" mask="url(#mask-6)"></path>
                        <path d="M51.4384828,44.9104629 C52.6184828,44.0539668 53.8308966,43.8877706 54.9777931,43.7960525 L54.9777931,43.4367655 C53.9564138,43.4615914 52.9522759,43.6298564 51.9715862,44.0222447 L51.9715862,41.5182694 C52.9743448,42.0596135 53.9764138,42.372007 54.9777931,42.359594 L54.9777931,41.9699642 C53.7984828,41.8954862 52.6026207,41.4203447 51.4384828,40.4514421 L51.4384828,44.9104629 Z M61.1681379,40.8879655 C60.0315862,41.7134291 58.8646897,41.8975551 57.7536552,41.9920317 L57.7536552,42.3575252 C58.7322759,42.3223551 59.6950345,42.1520213 60.6343448,41.7761836 L60.6343448,44.2318862 C59.6743448,43.7126096 58.7143448,43.4491784 57.7536552,43.4388343 L57.7536552,43.8360499 C58.8936552,43.9201823 60.046069,44.1698213 61.1681379,45.1042434 L61.1681379,40.8879655 Z" id="Fill-110" fill="#254998" mask="url(#mask-6)"></path>
                        <path d="M51.4384828,44.9104629 C52.6184828,44.0539668 53.8308966,43.8877706 54.9777931,43.7960525 L54.9777931,43.4367655 C53.9564138,43.4615914 52.9522759,43.6298564 51.9715862,44.0222447 L51.9715862,41.5182694 C52.9743448,42.0596135 53.9764138,42.372007 54.9777931,42.359594 L54.9777931,41.9699642 C53.7984828,41.8954862 52.6026207,41.4203447 51.4384828,40.4514421 L51.4384828,44.9104629 L51.4384828,44.9104629 Z M61.1681379,40.8879655 C60.0315862,41.7134291 58.8646897,41.8975551 57.7536552,41.9920317 L57.7536552,42.3575252 C58.7322759,42.3223551 59.6950345,42.1520213 60.6343448,41.7761836 L60.6343448,44.2318862 C59.6743448,43.7126096 58.7143448,43.4491784 57.7536552,43.4388343 L57.7536552,43.8360499 C58.8936552,43.9201823 60.046069,44.1698213 61.1681379,45.1042434 L61.1681379,40.8879655 L61.1681379,40.8879655 Z" id="Stroke-111" stroke="#7698C4" stroke-width="0.378" stroke-linecap="round" stroke-linejoin="round" mask="url(#mask-6)"></path>
                        <path d="M55.2496552,50.1630183 C55.9689655,50.3271456 56.6882759,50.3078365 57.4075862,50.1630183" id="Stroke-112" stroke="#254998" stroke-width="0.378" stroke-linecap="round" stroke-linejoin="round" mask="url(#mask-6)"></path>
                        <path d="M35.5944138,37.0411808 C37.5682069,41.2815951 41.0978621,44.7151652 45.9833793,46.7357236 L45.2282069,45.8337132 C43.2868276,44.8572249 41.6371724,43.589721 40.1861379,42.1236094 C39.7516552,41.6684665 39.782,41.2471145 40.1916552,40.8547262 C41.1523448,40.0858106 41.4895862,39.0438094 41.4337241,37.7632029 C41.444069,37.0446288 41.8757931,36.8694678 42.4337241,37.2825444 C43.4613103,38.0949055 43.9751034,40.7354236 45.2895862,42.4773795 C52.2523448,46.8750249 60.4806207,46.3998834 66.7454483,42.9959665 C68.9164828,40.5947431 68.7213103,37.9300886 70.1957931,37.6466587 C70.7551034,37.4928756 71.1578621,37.8225094 71.0413103,38.807273 C71.0316552,39.819621 71.2123448,40.75956 71.8626897,41.4422743 C72.1716552,41.7919068 72.1095862,42.2242925 71.6764828,42.7394314 C70.802,43.6290288 69.5647586,44.6089652 67.4530345,45.7875094 L66.3675172,46.9874314 C71.4488966,44.7510249 74.5633793,41.6795003 76.6337241,38.1645561 C76.4833793,39.3975795 76.1882069,40.6106042 75.7482069,41.8029405 C76.8530345,41.0733327 78.042,40.4616483 79.3523448,40.0216769 C74.4530345,45.1144496 70.0171724,50.1161938 60.002,51.6360951 C59.4716552,51.7491912 59.2075172,51.5174821 59.1709655,50.8685587 L59.1502759,49.4989925 C59.1488966,48.9707509 59.4861379,48.5597431 60.0571724,48.2301094 C57.5268276,48.5211249 54.8778621,48.581121 51.9330345,48.0728782 C52.2461379,48.4652665 52.8757931,48.7873145 52.8144138,49.36176 L52.6806207,51.0002743 C52.6488966,51.4664509 52.2923448,51.7271236 51.9061379,51.6154068 C40.1737241,48.4638873 36.9475172,44.4227704 33.2192414,39.0596704 C34.2992414,39.5596379 35.3792414,40.2857977 36.459931,41.0278184 C35.8013103,39.7603145 35.6295862,38.4121262 35.5944138,37.0411808" id="Fill-113" fill="#466BA7" mask="url(#mask-6)"></path>
                        <path d="M35.5944138,37.0411808 C37.5682069,41.2815951 41.0978621,44.7151652 45.9833793,46.7357236 L45.2282069,45.8337132 C43.2868276,44.8572249 41.6371724,43.589721 40.1861379,42.1236094 C39.7516552,41.6684665 39.782,41.2471145 40.1916552,40.8547262 C41.1523448,40.0858106 41.4895862,39.0438094 41.4337241,37.7632029 C41.444069,37.0446288 41.8757931,36.8694678 42.4337241,37.2825444 C43.4613103,38.0949055 43.9751034,40.7354236 45.2895862,42.4773795 C52.2523448,46.8750249 60.4806207,46.3998834 66.7454483,42.9959665 C68.9164828,40.5947431 68.7213103,37.9300886 70.1957931,37.6466587 C70.7551034,37.4928756 71.1578621,37.8225094 71.0413103,38.807273 C71.0316552,39.819621 71.2123448,40.75956 71.8626897,41.4422743 C72.1716552,41.7919068 72.1095862,42.2242925 71.6764828,42.7394314 C70.802,43.6290288 69.5647586,44.6089652 67.4530345,45.7875094 L66.3675172,46.9874314 C71.4488966,44.7510249 74.5633793,41.6795003 76.6337241,38.1645561 C76.4833793,39.3975795 76.1882069,40.6106042 75.7482069,41.8029405 C76.8530345,41.0733327 78.042,40.4616483 79.3523448,40.0216769 C74.4530345,45.1144496 70.0171724,50.1161938 60.002,51.6360951 C59.4716552,51.7491912 59.2075172,51.5174821 59.1709655,50.8685587 L59.1502759,49.4989925 C59.1488966,48.9707509 59.4861379,48.5597431 60.0571724,48.2301094 C57.5268276,48.5211249 54.8778621,48.581121 51.9330345,48.0728782 C52.2461379,48.4652665 52.8757931,48.7873145 52.8144138,49.36176 L52.6806207,51.0002743 C52.6488966,51.4664509 52.2923448,51.7271236 51.9061379,51.6154068 C40.1737241,48.4638873 36.9475172,44.4227704 33.2192414,39.0596704 C34.2992414,39.5596379 35.3792414,40.2857977 36.459931,41.0278184 C35.8013103,39.7603145 35.6295862,38.4121262 35.5944138,37.0411808 L35.5944138,37.0411808 Z" id="Stroke-114" stroke="#254998" stroke-width="0.272" mask="url(#mask-6)"></path>
                        <path d="M51.0075862,38.4575026 C51.7365517,37.5816974 55.0841379,37.194826 54.6765517,38.4030234 C54.3517241,39.0478091 54.3882759,39.4257156 55.1675862,39.6932844 L55.1675862,41.2028416 C55.157931,41.4724792 55.1675862,41.4490325 55.0586207,41.4290338 C54.3524138,41.3055935 53.9131034,41.0931935 53.5827586,40.7352857 C52.9241379,40.0049883 53.78,39.9049948 53.8027586,39.5884636 C53.8103448,39.4946766 53.72,39.3367558 53.6517241,39.2760701 C53.3096552,38.9712623 52.3041379,39.0484987 51.9344828,39.3657195 C51.9303448,39.3657195 51.8186207,39.4512312 51.7317241,39.4946766 C51.5034483,39.1581468 51.2213793,38.8629935 50.8917241,38.6078377 C50.8993103,38.5961143 50.9765517,38.4926727 51.0075862,38.4575026 M61.8758621,39.0947026 C61.1255172,38.1361442 57.777931,37.1500013 58.1813793,38.4175052 C58.5944828,39.0698766 58.5427586,39.5850156 57.6641379,39.8339649 L57.6641379,41.3559351 C57.7137931,41.4214481 57.5503448,41.4524805 57.6172414,41.4435156 C58.6910345,41.2738714 59.3696552,40.9214805 59.2655172,40.2022169 C59.2531034,40.1201532 59.24,40.0629156 59.1917241,39.9953338 C58.6268966,39.1926273 60.2565517,39.0347065 61.0241379,39.6919052 C61.2510345,39.4533 61.517931,39.2546922 61.8758621,39.0947026" id="Fill-115" fill="#466BA7" mask="url(#mask-6)"></path>
                        <path d="M51.0075862,38.4575026 C51.7365517,37.5816974 55.0841379,37.194826 54.6765517,38.4030234 C54.3517241,39.0478091 54.3882759,39.4257156 55.1675862,39.6932844 L55.1675862,41.2028416 C55.157931,41.4724792 55.1675862,41.4490325 55.0586207,41.4290338 C54.3524138,41.3055935 53.9131034,41.0931935 53.5827586,40.7352857 C52.9241379,40.0049883 53.78,39.9049948 53.8027586,39.5884636 C53.8103448,39.4946766 53.72,39.3367558 53.6517241,39.2760701 C53.3096552,38.9712623 52.3041379,39.0484987 51.9344828,39.3657195 C51.9303448,39.3657195 51.8186207,39.4512312 51.7317241,39.4946766 C51.5034483,39.1581468 51.2213793,38.8629935 50.8917241,38.6078377 C50.8993103,38.5961143 50.9765517,38.4926727 51.0075862,38.4575026 L51.0075862,38.4575026 Z M61.8758621,39.0947026 C61.1255172,38.1361442 57.777931,37.1500013 58.1813793,38.4175052 C58.5944828,39.0698766 58.5427586,39.5850156 57.6641379,39.8339649 L57.6641379,41.3559351 C57.7137931,41.4214481 57.5503448,41.4524805 57.6172414,41.4435156 C58.6910345,41.2738714 59.3696552,40.9214805 59.2655172,40.2022169 C59.2531034,40.1201532 59.24,40.0629156 59.1917241,39.9953338 C58.6268966,39.1926273 60.2565517,39.0347065 61.0241379,39.6919052 C61.2510345,39.4533 61.517931,39.2546922 61.8758621,39.0947026 L61.8758621,39.0947026 Z" id="Stroke-116" stroke="#254998" stroke-width="0.272" mask="url(#mask-6)"></path>
                        <path d="M45.1888276,45.7176518 C46.2846897,46.2458934 47.3991724,46.6982778 48.5377931,47.0754947 C49.6771034,47.4534012 50.8371034,47.7568297 52.0164138,47.9954349 L51.9777931,48.174044 C50.7950345,47.9340596 49.6288276,47.6264934 48.4826207,47.2472077 C47.3357241,46.8699908 46.2115862,46.4162271 45.1122759,45.8810895 L45.1888276,45.7176518 Z M66.5502069,47.0072232 L66.5502069,47.0072232 C64.6812414,47.9064752 62.5398621,48.448509 60.5095172,48.9629583 C60.4474483,48.9781297 60.3867586,48.9960596 60.3295172,49.0105414 C59.7474483,49.1691518 59.4922759,48.9291674 59.981931,48.3657557 C59.7957241,48.7229739 59.7681379,48.9698544 60.2764138,48.8381388 C60.2826207,48.8340012 60.2902069,48.8326219 60.2971034,48.8326219 C60.301931,48.8312427 60.3033103,48.8312427 60.3088276,48.8271051 C60.3584828,48.8133129 60.4129655,48.8036583 60.4667586,48.7898661 C62.486069,48.276796 64.6164138,47.7347622 66.4695172,46.8437856 L66.4695172,46.843096 L66.4729655,46.843096 L66.4888276,46.8789557 L66.5502069,47.0072232 Z M66.7688276,43.0895466 L66.7646897,43.0895466 L66.7164138,42.9923116 L66.6867586,42.926109 C66.7012414,42.9185232 66.7371034,42.8978349 66.7764138,42.876457 C66.8108966,42.8550791 66.8453793,42.83577 66.8522759,42.8288739 L66.8536552,42.8288739 C67.0322759,42.7330181 67.2371034,42.6088882 67.4495172,42.46407 C67.6681379,42.3158038 67.8957241,42.1496077 68.1226207,41.970309 C69.2833103,41.0379557 70.4777931,39.6932155 70.2571034,38.6519038 C70.1750345,38.2257245 69.6805517,38.3077882 69.4129655,38.625009 C69.8122759,37.9781544 70.3467586,38.1836583 70.4357241,38.6167336 C70.6757241,39.7414882 69.4398621,41.1469142 68.2329655,42.108231 C67.9998621,42.2951155 67.7722759,42.4654492 67.5522759,42.6150947 C67.3329655,42.7599129 67.1274483,42.8895596 66.9412414,42.9867947 L66.9405517,42.9881739 C66.9274483,42.99507 66.8991724,43.0143791 66.866069,43.0336882 C66.8246897,43.0557557 66.7771034,43.0826505 66.7702069,43.0895466 L66.7688276,43.0895466 Z M45.2688276,42.5675116 L45.2688276,42.5675116 L45.2653793,42.5668219 C45.2564138,42.5599258 45.2095172,42.5337206 45.1667586,42.5068258 C45.1384828,42.4916544 45.1067586,42.4723453 45.0929655,42.4654492 C44.9115862,42.3640765 44.7067586,42.2385674 44.4943448,42.0951284 C44.2826207,41.9509999 44.0667586,41.786183 43.8488276,41.6075739 C42.7233103,40.6752206 41.6315862,39.3235843 41.8715862,38.1988297 C41.9736552,37.8485077 42.3867586,37.7974765 42.7764138,38.3491648 C42.5157241,38.1084908 42.1336552,38.0126349 42.0488276,38.2388271 C41.824,39.2822077 42.8805517,40.5655726 43.9653793,41.4648245 C44.1784828,41.6420544 44.3929655,41.8061817 44.5971034,41.945483 C44.8033103,42.0882323 45.001931,42.2096038 45.1805517,42.3075284 C45.1874483,42.3082181 45.221931,42.3289064 45.2605517,42.3502843 C45.2971034,42.3751103 45.3329655,42.3964882 45.3508966,42.4033843 L45.3177931,42.4661388 L45.2688276,42.5675116 Z M52.0936552,48.3526531 C52.5888276,48.9229609 52.3198621,49.1070869 51.7281379,48.9367531 L51.7295172,48.9367531 C50.6998621,48.6347038 49.6757241,48.3112765 48.6681379,47.9471622 C47.6515862,47.5782206 46.6495172,47.1720401 45.6888276,46.7072427 L45.764,46.5465635 C46.7233103,47.0065336 47.7150345,47.4120245 48.7302069,47.7761388 C49.7453793,48.1409427 50.7750345,48.4691973 51.804,48.7712466 C52.306069,48.9064103 52.2784828,48.7105609 52.0936552,48.3526531 L52.0936552,48.3526531 Z M59.8784828,48.1802505 C61.3315862,47.9664713 62.6646897,47.6058051 63.9343448,47.1596271 C65.1977931,46.7134492 66.3977931,46.1831388 67.566069,45.621796 L67.6474483,45.7852336 C66.4695172,46.3493349 65.2667586,46.883783 63.9908966,47.3313401 C62.7184828,47.7823453 61.3674483,48.14577 59.9053793,48.3588596 L59.8784828,48.1802505 Z" id="Fill-117" fill="#254998" mask="url(#mask-6)"></path>
                        <path d="M45.1888276,45.7176518 C46.2846897,46.2458934 47.3991724,46.6982778 48.5377931,47.0754947 C49.6771034,47.4534012 50.8371034,47.7568297 52.0164138,47.9954349 L51.9777931,48.174044 C50.7950345,47.9340596 49.6288276,47.6264934 48.4826207,47.2472077 C47.3357241,46.8699908 46.2115862,46.4162271 45.1122759,45.8810895 L45.1888276,45.7176518 L45.1888276,45.7176518 Z M66.5502069,47.0072232 L66.5502069,47.0072232 C64.6812414,47.9064752 62.5398621,48.448509 60.5095172,48.9629583 C60.4474483,48.9781297 60.3867586,48.9960596 60.3295172,49.0105414 C59.7474483,49.1691518 59.4922759,48.9291674 59.981931,48.3657557 C59.7957241,48.7229739 59.7681379,48.9698544 60.2764138,48.8381388 C60.2826207,48.8340012 60.2902069,48.8326219 60.2971034,48.8326219 C60.301931,48.8312427 60.3033103,48.8312427 60.3088276,48.8271051 C60.3584828,48.8133129 60.4129655,48.8036583 60.4667586,48.7898661 C62.486069,48.276796 64.6164138,47.7347622 66.4695172,46.8437856 L66.4695172,46.843096 L66.4729655,46.843096 L66.4888276,46.8789557 L66.5502069,47.0072232 L66.5502069,47.0072232 Z M66.7688276,43.0895466 L66.7646897,43.0895466 L66.7164138,42.9923116 L66.6867586,42.926109 C66.7012414,42.9185232 66.7371034,42.8978349 66.7764138,42.876457 C66.8108966,42.8550791 66.8453793,42.83577 66.8522759,42.8288739 L66.8536552,42.8288739 C67.0322759,42.7330181 67.2371034,42.6088882 67.4495172,42.46407 C67.6681379,42.3158038 67.8957241,42.1496077 68.1226207,41.970309 C69.2833103,41.0379557 70.4777931,39.6932155 70.2571034,38.6519038 C70.1750345,38.2257245 69.6805517,38.3077882 69.4129655,38.625009 C69.8122759,37.9781544 70.3467586,38.1836583 70.4357241,38.6167336 C70.6757241,39.7414882 69.4398621,41.1469142 68.2329655,42.108231 C67.9998621,42.2951155 67.7722759,42.4654492 67.5522759,42.6150947 C67.3329655,42.7599129 67.1274483,42.8895596 66.9412414,42.9867947 L66.9405517,42.9881739 C66.9274483,42.99507 66.8991724,43.0143791 66.866069,43.0336882 C66.8246897,43.0557557 66.7771034,43.0826505 66.7702069,43.0895466 L66.7688276,43.0895466 L66.7688276,43.0895466 Z M45.2688276,42.5675116 L45.2688276,42.5675116 L45.2653793,42.5668219 C45.2564138,42.5599258 45.2095172,42.5337206 45.1667586,42.5068258 C45.1384828,42.4916544 45.1067586,42.4723453 45.0929655,42.4654492 C44.9115862,42.3640765 44.7067586,42.2385674 44.4943448,42.0951284 C44.2826207,41.9509999 44.0667586,41.786183 43.8488276,41.6075739 C42.7233103,40.6752206 41.6315862,39.3235843 41.8715862,38.1988297 C41.9736552,37.8485077 42.3867586,37.7974765 42.7764138,38.3491648 C42.5157241,38.1084908 42.1336552,38.0126349 42.0488276,38.2388271 C41.824,39.2822077 42.8805517,40.5655726 43.9653793,41.4648245 C44.1784828,41.6420544 44.3929655,41.8061817 44.5971034,41.945483 C44.8033103,42.0882323 45.001931,42.2096038 45.1805517,42.3075284 C45.1874483,42.3082181 45.221931,42.3289064 45.2605517,42.3502843 C45.2971034,42.3751103 45.3329655,42.3964882 45.3508966,42.4033843 L45.3177931,42.4661388 L45.2688276,42.5675116 L45.2688276,42.5675116 Z M52.0936552,48.3526531 C52.5888276,48.9229609 52.3198621,49.1070869 51.7281379,48.9367531 L51.7295172,48.9367531 C50.6998621,48.6347038 49.6757241,48.3112765 48.6681379,47.9471622 C47.6515862,47.5782206 46.6495172,47.1720401 45.6888276,46.7072427 L45.764,46.5465635 C46.7233103,47.0065336 47.7150345,47.4120245 48.7302069,47.7761388 C49.7453793,48.1409427 50.7750345,48.4691973 51.804,48.7712466 C52.306069,48.9064103 52.2784828,48.7105609 52.0936552,48.3526531 L52.0936552,48.3526531 Z M59.8784828,48.1802505 C61.3315862,47.9664713 62.6646897,47.6058051 63.9343448,47.1596271 C65.1977931,46.7134492 66.3977931,46.1831388 67.566069,45.621796 L67.6474483,45.7852336 C66.4695172,46.3493349 65.2667586,46.883783 63.9908966,47.3313401 C62.7184828,47.7823453 61.3674483,48.14577 59.9053793,48.3588596 L59.8784828,48.1802505 L59.8784828,48.1802505 Z" id="Stroke-118" stroke="#254998" stroke-width="0.076" mask="url(#mask-6)"></path>
                        <polygon id="Fill-119" fill="#466BA7" mask="url(#mask-6)" points="56.5964828 8.40090273 60.9033793 18.1030313 71.7130345 19.5450066 63.7137241 26.7162651 65.162 37.0342157 56.4702759 31.9483391 46.9075172 37.0349053 48.9957931 26.6535105 41.3392414 19.1388261 52.0288966 17.673404"></polygon>
                        <polygon id="Stroke-120" stroke="#254998" stroke-width="0.272" mask="url(#mask-6)" points="56.5964828 8.40090273 60.9033793 18.1030313 71.7130345 19.5450066 63.7137241 26.7162651 65.162 37.0342157 56.4702759 31.9483391 46.9075172 37.0349053 48.9957931 26.6535105 41.3392414 19.1388261 52.0288966 17.673404"></polygon>
                        <path d="M56.3164138,14.850346 C61.5074483,14.850346 65.7405517,19.0817953 65.7405517,24.2697343 C65.7405517,29.4583629 61.5074483,33.6898122 56.3164138,33.6898122 C51.1253793,33.6898122 46.8908966,29.4583629 46.8908966,24.2697343 C46.8908966,19.0817953 51.1253793,14.850346 56.3164138,14.850346" id="Fill-121" fill="#7698C4" mask="url(#mask-6)"></path>
                        <path d="M65.158069,36.9872532 L65.1649655,37.0341468 L59.1187586,33.4964455 L61.9822069,32.1730831 L65.158069,36.9872532 Z M71.6870345,19.5704532 L66.0242759,24.6473649 L65.6270345,21.374474 L71.6870345,19.5704532 Z M56.6042759,8.41255714 L59.6111724,15.1859104 L56.6042759,14.6224987 L56.6042759,8.41255714 Z M41.3546207,19.1511701 L41.3422069,19.1387571 L48.8511724,18.1091688 L47.1677241,21.1406961 L41.3546207,19.1511701 Z M46.9166897,37.0017351 L48.3884138,29.6863481 L50.5353103,32.1854961 L46.9166897,37.0017351 Z" id="Fill-122" fill="#7698C4" mask="url(#mask-6)"></path>
                        <path d="M65.158069,36.9872532 L65.1649655,37.0341468 L59.1187586,33.4964455 L61.9822069,32.1730831 L65.158069,36.9872532 L65.158069,36.9872532 Z M71.6870345,19.5704532 L66.0242759,24.6473649 L65.6270345,21.374474 L71.6870345,19.5704532 L71.6870345,19.5704532 Z M56.6042759,8.41255714 L59.6111724,15.1859104 L56.6042759,14.6224987 L56.6042759,8.41255714 L56.6042759,8.41255714 Z M41.3546207,19.1511701 L41.3422069,19.1387571 L48.8511724,18.1091688 L47.1677241,21.1406961 L41.3546207,19.1511701 L41.3546207,19.1511701 Z M46.9166897,37.0017351 L48.3884138,29.6863481 L50.5353103,32.1854961 L46.9166897,37.0017351 L46.9166897,37.0017351 Z" id="Stroke-123" stroke="#254998" stroke-width="0.62" stroke-linecap="round" stroke-linejoin="round" mask="url(#mask-6)"></path>
                        <path d="M56.3164138,17.3853538 C60.1102069,17.3853538 63.2046897,20.4782564 63.2046897,24.2704239 C63.2046897,28.0619018 60.1102069,31.1548044 56.3164138,31.1548044 C52.5226207,31.1548044 49.4281379,28.0619018 49.4281379,24.2704239 C49.4281379,20.4782564 52.5226207,17.3853538 56.3164138,17.3853538 M56.3143448,14.850346 C61.5046897,14.850346 65.7384828,19.0845538 65.7384828,24.2704239 C65.7384828,29.456294 61.5046897,33.6877434 56.3143448,33.6877434 C51.1274483,33.6877434 46.8908966,29.456294 46.8908966,24.2704239 C46.8908966,19.0845538 51.1274483,14.850346 56.3143448,14.850346 M56.3164138,14.3241732 C61.7971034,14.3241732 66.2667586,18.792159 66.2667586,24.2704239 C66.2667586,29.7479992 61.7971034,34.2159849 56.3164138,34.2159849 C50.8350345,34.2159849 46.3653793,29.7479992 46.3653793,24.2704239 C46.3653793,18.792159 50.8350345,14.3241732 56.3164138,14.3241732 M56.3164138,16.8771109 C60.3902069,16.8771109 63.7129655,20.1982745 63.7129655,24.2704239 C63.7129655,28.3425732 60.3902069,31.6630473 56.3164138,31.6630473 C52.241931,31.6630473 48.9191724,28.3425732 48.9191724,24.2704239 C48.9191724,20.1982745 52.241931,16.8771109 56.3164138,16.8771109" id="Fill-124" fill="#254998" mask="url(#mask-6)"></path>
                        <path d="M54.1114483,18.1332362 L54.9011034,18.8745674 L55.8473103,18.3449466 L55.3852414,19.324883 L56.1817931,20.0600077 L55.1066207,19.9241544 L54.6528276,20.9082284 L54.450069,19.8441596 L53.3735172,19.7172713 L54.3238621,19.1952362 L54.1114483,18.1332362 Z M59.6576552,21.6785232 L60.2893793,22.4033038 L61.1707586,22.0198804 L60.6755862,22.8446544 L61.3135172,23.5639181 L60.3755862,23.3487596 L59.888,24.1769817 L59.8038621,23.2191129 L58.8645517,23.0115401 L59.750069,22.6350129 L59.6576552,21.6785232 Z M56.6335172,23.5246103 L57.1473103,24.1949116 L57.9411034,23.907344 L57.4624828,24.6024713 L57.9817931,25.2679453 L57.1721379,25.0279609 L56.6997241,25.7272258 L56.6776552,24.8838323 L55.865931,24.6500544 L56.6624828,24.3686934 L56.6335172,23.5246103 Z M56.948,28.3670544 L57.7273103,28.8311622 L58.4045517,28.2277531 L58.2045517,29.1125232 L58.9873103,29.5690453 L58.0845517,29.6524882 L57.8921379,30.5379479 L57.5335172,29.7048986 L56.6307586,29.7959271 L57.3128276,29.1973453 L56.948,28.3670544 Z M51.1424828,24.4921336 L51.7735172,25.2169142 L52.6562759,24.8334908 L52.1604138,25.6575752 L52.7976552,26.3775284 L51.8611034,26.1616804 L51.3728276,26.9899025 L51.2886897,26.0327232 L50.350069,25.8244609 L51.2348966,25.4486232 L51.1424828,24.4921336 Z" id="Fill-125" fill="#254998" mask="url(#mask-6)"></path>
                    </g>
                    <g id="Group-152" transform="translate(0.000000, 0.217020)">
                        <path d="M13.0010345,13.735177 L15.2396552,14.4116848 C15.0893103,15.0392303 14.852069,15.5640238 14.5293103,15.9846861 C14.2058621,16.4053484 13.8044828,16.7232588 13.3251724,16.9370381 C12.8458621,17.1515069 12.2362069,17.2590861 11.4955172,17.2590861 C10.5975862,17.2590861 9.86310345,17.1280601 9.29413793,16.8673874 C8.72448276,16.6060251 8.23344828,16.1467445 7.81965517,15.4895458 C7.40586207,14.8323471 7.19965517,13.9910225 7.19965517,12.9655718 C7.19965517,11.598764 7.56310345,10.5477978 8.29068966,9.81336273 C9.01758621,9.07892766 10.0465517,8.71205494 11.3775862,8.71205494 C12.4182759,8.71205494 13.2368966,8.9223861 13.8327586,9.34304844 C14.4286207,9.76440039 14.8706897,10.4105653 15.1603448,11.2829225 L12.9051724,11.7842692 C12.8265517,11.5325614 12.7437931,11.3484355 12.6568966,11.2318913 C12.5141379,11.0367316 12.3396552,10.8863965 12.1327586,10.7808861 C11.9258621,10.6760653 11.6948276,10.6229653 11.4396552,10.6229653 C10.8603448,10.6229653 10.4168966,10.8560536 10.1086207,11.3215406 C9.87551724,11.6670355 9.75896552,12.2090692 9.75896552,12.9483316 C9.75896552,13.8648238 9.89827586,14.4923692 10.1762069,14.8323471 C10.4548276,15.1723251 10.8451724,15.3419692 11.3493103,15.3419692 C11.8375862,15.3419692 12.2072414,15.2047368 12.4568966,14.9302718 C12.7072414,14.6558069 12.8886207,14.2579017 13.0010345,13.735177 L13.0010345,13.735177 Z" id="Fill-127" fill="#FEFEFE"></path>
                        <path d="M19.0337931,12.3765066 L19.6593103,12.3765066 C20.1517241,12.3765066 20.497931,12.2909949 20.6972414,12.1199716 C20.8965517,11.9489482 20.9958621,11.7303417 20.9958621,11.4634625 C20.9958621,11.204169 20.9089655,10.9841832 20.7365517,10.8035053 C20.5634483,10.623517 20.2386207,10.5331781 19.7613793,10.5331781 L19.0337931,10.5331781 L19.0337931,12.3765066 Z M16.4682759,8.85259753 L20.7137931,8.85259753 C21.6386207,8.85259753 22.3310345,9.07258325 22.7917241,9.51255468 C23.2517241,9.9525261 23.482069,10.5780027 23.482069,11.3896742 C23.482069,12.2241027 23.2317241,12.8764742 22.7296552,13.3460988 C22.2275862,13.8164131 21.462069,14.0508806 20.4317241,14.0508806 L19.0337931,14.0508806 L19.0337931,17.1175781 L16.4682759,17.1175781 L16.4682759,8.85259753 Z" id="Fill-129" fill="#FEFEFE"></path>
                        <polygon id="Fill-131" fill="#FEFEFE" points="24.8298621 8.85287338 31.1443448 8.85287338 31.1443448 10.6286201 27.3953793 10.6286201 27.3953793 12.0719747 30.5974483 12.0719747 30.5974483 13.7408318 27.3953793 13.7408318 27.3953793 17.1178539 24.8298621 17.1178539"></polygon>
                        <g id="Group-5" transform="translate(8.000000, 28.000000)" font-size="11" font-family=".SFNSText-Bold, .SF NS Text" letter-spacing="-1.15789473" fill="#7698C4" font-weight="bold">
                            <g id="Group-4">
                                <text id="***-***-***-**">
                                    <tspan x="0.4609375" y="11">*** *** *** **</tspan>
                                </text>
                            </g>
                        </g>
                        <path d="M23.2611333,39.6845223 L7.22093567,39.6845223 C6.54962799,39.6845223 6,39.226621 6,38.667347 L6,28.32526 C6,27.765986 6.54962799,27.3080847 7.22093567,27.3080847 L23.2611333,27.3080847 C23.932441,27.3080847 24.482069,27.765986 24.482069,28.32526 L24.482069,38.667347 C24.482069,39.226621 23.932441,39.6845223 23.2611333,39.6845223 L23.2611333,39.6845223 Z" id="Stroke-151" stroke="#E14566" stroke-width="2.028"></path>
                    </g>
                </g>
            </g>
        </g>
    </g>
</svg>