<?xml version="1.0" encoding="UTF-8"?>
<svg width="100px" height="31px" viewBox="0 0 100 31" version="1.1" xmlns="http://www.w3.org/2000/svg" xmlns:xlink="http://www.w3.org/1999/xlink">
    <!-- Generator: Sketch 40.1 (33804) - http://www.bohemiancoding.com/sketch -->
    <title>Page 1</title>
    <desc>Created with Sketch.</desc>
    <defs>
        <path d="M0.477,3.356 C3.889,3.356 6.666,6.123 6.666,9.524 C6.666,12.926 3.889,15.692 0.477,15.692 L0.477,18.775 C5.596,18.775 9.761,14.625 9.761,9.524 C9.761,4.423 5.596,0.272 0.477,0.272 L0.477,3.356 L0.477,3.356 Z" id="path-1"></path>
        <path d="M12.171,9.505 C12.171,14.721 16.275,18.964 21.319,18.964 C23.827,18.964 26.252,17.943 27.976,16.163 L25.761,14.033 C24.614,15.217 22.996,15.895 21.319,15.895 C17.916,15.895 15.25,13.089 15.25,9.505 C15.25,5.923 17.916,3.116 21.319,3.116 C22.996,3.116 24.614,3.794 25.761,4.979 L27.976,2.85 C26.252,1.069 23.827,0.047 21.319,0.047 C16.275,0.047 12.171,4.291 12.171,9.505 L12.171,9.505 Z M61.025,4.947 C60.584,9.48 65.756,10.537 67.339,11.025 C68.703,11.446 71.773,12.143 71.499,13.859 C71.361,14.721 70.239,15.999 67.547,15.93 C65.918,15.887 64.571,15.321 63.362,14.068 L61.199,16.131 C62.958,17.957 65.014,18.932 67.467,18.997 C71.986,19.114 74.37,16.187 74.563,14.173 C74.964,10.001 70.66,8.801 68.251,8.095 C66.779,7.663 63.785,6.882 64.09,5.262 C64.253,4.402 65.351,3.12 68.043,3.19 C69.672,3.232 71.018,3.799 72.227,5.052 L74.39,2.989 C72.631,1.163 70.575,0.187 68.123,0.124 C68.034,0.121 67.945,0.12 67.857,0.12 C63.509,0.12 61.218,2.972 61.025,4.947 L61.025,4.947 Z M45.388,4.947 C44.946,9.48 50.117,10.537 51.7,11.025 C53.065,11.446 56.136,12.143 55.86,13.859 C55.722,14.721 54.6,15.999 51.908,15.93 C50.279,15.887 48.934,15.321 47.723,14.068 L45.561,16.131 C47.32,17.957 49.375,18.932 51.827,18.997 C56.347,19.114 58.732,16.187 58.926,14.173 C59.325,10.001 55.021,8.801 52.612,8.095 C51.141,7.663 48.147,6.882 48.452,5.262 C48.613,4.402 49.712,3.12 52.404,3.19 C54.033,3.232 55.379,3.799 56.589,5.052 L58.752,2.989 C56.992,1.163 54.937,0.187 52.485,0.124 C52.396,0.121 52.307,0.12 52.22,0.12 C47.872,0.12 45.579,2.972 45.388,4.947 L45.388,4.947 Z M76.193,9.523 C76.193,14.625 80.358,18.775 85.477,18.775 L85.477,15.692 C82.064,15.692 79.287,12.925 79.287,9.523 C79.287,6.123 82.064,3.356 85.477,3.356 L85.477,0.272 C80.358,0.272 76.193,4.423 76.193,9.523 L76.193,9.523 Z M3.507,4.718 L5.861,11.066 L1.151,11.066 L0.006,14.15 L7.004,14.15 L8.719,18.775 L12.018,18.775 L5.159,0.272 L3.507,4.718 L3.507,4.718 Z M30.643,0.353 L30.643,18.757 L42.892,18.757 L42.892,15.682 L33.729,15.682 L33.729,11.07 L41.75,11.07 L41.75,7.993 L33.729,7.993 L33.729,3.428 L42.892,3.428 L42.892,0.353 L30.643,0.353 L30.643,0.353 Z" id="path-3"></path>
    </defs>
    <g id="Welcome" stroke="none" stroke-width="1" fill="none" fill-rule="evenodd">
        <g id="Desktop-HD" transform="translate(-2198.000000, -639.000000)">
            <g id="Page-1" transform="translate(2198.000000, 639.000000)">
                <g id="Group-3" transform="translate(90.000000, 11.812900)">
                    <mask id="mask-2" fill="white">
                        <use xlink:href="#path-1"></use>
                    </mask>
                    <g id="Clip-2"></g>
                    <polygon id="Fill-1" fill="#1F1311" mask="url(#mask-2)" points="-4.523 23.775 14.761 23.775 14.761 -4.728 -4.523 -4.728"></polygon>
                </g>
                <polygon id="Fill-4" fill="#1F1311" points="6.8593 12.0853 0.0003 30.5883 3.2993 30.5883 10.1583 12.0853"></polygon>
                <g id="Group-7" transform="translate(5.000000, 11.812900)">
                    <mask id="mask-4" fill="white">
                        <use xlink:href="#path-3"></use>
                    </mask>
                    <g id="Clip-6"></g>
                    <polygon id="Fill-5" fill="#49B2B1" mask="url(#mask-4)" points="-4.994 24 90.477 24 90.477 -4.952 -4.994 -4.952"></polygon>
                </g>
                <g id="Group-26" transform="translate(12.000000, 0.812900)" fill="#929292">
                    <path d="M1.0351,1.1711 L1.0351,2.2131 L1.0351,3.0981 L1.0351,4.1401 L2.5881,4.1401 C3.0891,4.1401 3.4771,4.0111 3.7551,3.7541 C4.0311,3.4971 4.1701,3.1361 4.1701,2.6701 C4.1701,2.1851 4.0341,1.8141 3.7621,1.5571 C3.4901,1.3001 3.0981,1.1711 2.5881,1.1711 L1.0351,1.1711 Z M0.1561,0.3901 L1.4861,0.3901 L2.8171,0.3901 C3.4841,0.3901 4.0271,0.6021 4.4451,1.0271 C4.8641,1.4511 5.0731,1.9991 5.0731,2.6701 C5.0731,3.3271 4.8601,3.8671 4.4351,4.2891 C4.0111,4.7101 3.4681,4.9211 2.8071,4.9211 L1.0351,4.9211 L1.0351,7.4361 L0.1561,7.4361 L0.1561,0.3901 Z" id="Fill-8"></path>
                    <path d="M9.7168,6.2541 C9.9868,5.9091 10.1218,5.4261 10.1218,4.8041 C10.1218,4.1791 9.9868,3.6941 9.7168,3.3521 C9.4458,3.0081 9.0628,2.8361 8.5648,2.8361 C8.0668,2.8361 7.6818,3.0081 7.4118,3.3521 C7.1418,3.6941 7.0068,4.1791 7.0068,4.8041 C7.0068,5.4261 7.1418,5.9091 7.4118,6.2541 C7.6818,6.5991 8.0668,6.7721 8.5648,6.7721 C9.0628,6.7721 9.4458,6.5991 9.7168,6.2541 M6.7888,6.7991 C6.3548,6.3121 6.1378,5.6471 6.1378,4.8041 C6.1378,3.9571 6.3548,3.2921 6.7888,2.8071 C7.2238,2.3211 7.8158,2.0791 8.5648,2.0791 C9.3128,2.0791 9.9038,2.3211 10.3388,2.8071 C10.7738,3.2921 10.9908,3.9571 10.9908,4.8041 C10.9908,5.6471 10.7738,6.3121 10.3388,6.7991 C9.9038,7.2851 9.3128,7.5281 8.5648,7.5281 C7.8158,7.5281 7.2238,7.2851 6.7888,6.7991" id="Fill-10"></path>
                    <path d="M18.9306,2.1721 C18.7316,2.8821 18.5596,3.4981 18.4126,4.0201 C18.2666,4.5431 18.1196,5.0651 17.9736,5.5881 C17.8266,6.1101 17.6546,6.7261 17.4556,7.4361 L16.6016,7.4361 L15.4246,3.3631 L15.3466,3.3631 L14.1746,7.4361 L13.3256,7.4361 L11.8506,2.1721 L12.7006,2.1721 L13.7356,6.3811 L13.8136,6.3811 L14.9906,2.1721 L15.7956,2.1721 L16.9726,6.3811 L17.0506,6.3811 L18.0856,2.1721 L18.9306,2.1721 Z" id="Fill-12"></path>
                    <path d="M21.1181,3.2463 C20.8471,3.5293 20.6961,3.9033 20.6641,4.3693 L23.5641,4.3693 C23.5551,3.9033 23.4211,3.5293 23.1641,3.2463 C22.9061,2.9633 22.5691,2.8213 22.1531,2.8213 C21.7331,2.8213 21.3881,2.9633 21.1181,3.2463 M23.5401,6.0733 L23.9601,6.0733 L24.3801,6.0733 C24.2531,6.5253 23.9951,6.8813 23.6081,7.1413 C23.2211,7.3983 22.7391,7.5283 22.1631,7.5283 C21.4331,7.5283 20.8551,7.2833 20.4301,6.7933 C20.0031,6.3043 19.7901,5.6423 19.7901,4.8083 C19.7901,3.9813 20.0051,3.3203 20.4341,2.8243 C20.8641,2.3273 21.4401,2.0793 22.1631,2.0793 C22.8721,2.0793 23.4311,2.3163 23.8381,2.7893 C24.2441,3.2643 24.4481,3.9083 24.4481,4.7253 L24.4481,5.0483 L20.6641,5.0483 L20.6641,5.0873 C20.6861,5.6073 20.8341,6.0213 21.1051,6.3273 C21.3781,6.6333 21.7361,6.7863 22.1821,6.7863 C22.5201,6.7863 22.8041,6.7253 23.0321,6.6033 C23.2601,6.4803 23.4291,6.3053 23.5401,6.0733" id="Fill-14"></path>
                    <path d="M25.7666,7.4357 L25.7666,5.5877 L25.7666,4.0197 L25.7666,2.1717 L26.5676,2.1717 L26.5676,2.9537 L26.6456,2.9537 C26.7236,2.6967 26.8996,2.4867 27.1726,2.3237 C27.4466,2.1607 27.7566,2.0797 28.1056,2.0797 C28.1736,2.0797 28.2476,2.0817 28.3276,2.0857 C28.4076,2.0917 28.4726,2.0967 28.5256,2.1037 L28.5256,2.9437 C28.4926,2.9337 28.4156,2.9227 28.2956,2.9127 C28.1746,2.9007 28.0726,2.8947 27.9886,2.8947 C27.5876,2.8947 27.2566,3.0147 26.9966,3.2557 C26.7366,3.4977 26.6066,3.8027 26.6066,4.1737 L26.6066,7.4357 L25.7666,7.4357 Z" id="Fill-16"></path>
                    <path d="M30.6396,3.2463 C30.3686,3.5293 30.2176,3.9033 30.1856,4.3693 L33.0856,4.3693 C33.0766,3.9033 32.9426,3.5293 32.6856,3.2463 C32.4276,2.9633 32.0906,2.8213 31.6746,2.8213 C31.2546,2.8213 30.9096,2.9633 30.6396,3.2463 M33.0616,6.0733 L33.4816,6.0733 L33.9016,6.0733 C33.7746,6.5253 33.5166,6.8813 33.1296,7.1413 C32.7426,7.3983 32.2606,7.5283 31.6846,7.5283 C30.9546,7.5283 30.3766,7.2833 29.9516,6.7933 C29.5246,6.3043 29.3116,5.6423 29.3116,4.8083 C29.3116,3.9813 29.5266,3.3203 29.9556,2.8243 C30.3856,2.3273 30.9616,2.0793 31.6846,2.0793 C32.3936,2.0793 32.9526,2.3163 33.3596,2.7893 C33.7656,3.2643 33.9696,3.9083 33.9696,4.7253 L33.9696,5.0483 L30.1856,5.0483 L30.1856,5.0873 C30.2076,5.6073 30.3556,6.0213 30.6266,6.3273 C30.8996,6.6333 31.2576,6.7863 31.7036,6.7863 C32.0416,6.7863 32.3256,6.7253 32.5536,6.6033 C32.7816,6.4803 32.9506,6.3053 33.0616,6.0733" id="Fill-18"></path>
                    <path d="M36.3037,3.3615 C36.0307,3.7115 35.8937,4.1915 35.8937,4.8035 C35.8937,5.4195 36.0297,5.9005 36.3007,6.2495 C36.5737,6.5975 36.9497,6.7715 37.4317,6.7715 C37.9097,6.7715 38.2867,6.5955 38.5647,6.2445 C38.8407,5.8925 38.9797,5.4125 38.9797,4.8035 C38.9797,4.2015 38.8397,3.7225 38.5617,3.3685 C38.2827,3.0135 37.9067,2.8365 37.4317,2.8365 C36.9527,2.8365 36.5767,3.0105 36.3037,3.3615 M35.6247,6.7865 C35.2247,6.2915 35.0247,5.6315 35.0247,4.8035 C35.0247,3.9765 35.2257,3.3165 35.6297,2.8215 C36.0327,2.3265 36.5687,2.0795 37.2367,2.0795 C37.6037,2.0795 37.9337,2.1605 38.2247,2.3235 C38.5167,2.4865 38.7367,2.7125 38.8867,3.0025 L38.9597,3.0025 L38.9597,0.0825 L39.7997,0.0825 L39.7997,7.4355 L38.9987,7.4355 L38.9987,6.5955 L38.9207,6.5955 C38.7547,6.8885 38.5237,7.1175 38.2277,7.2815 C37.9307,7.4465 37.6007,7.5285 37.2367,7.5285 C36.5627,7.5285 36.0257,7.2815 35.6247,6.7865" id="Fill-20"></path>
                    <path d="M45.539,3.3635 C45.261,3.7155 45.122,4.1955 45.122,4.8035 C45.122,5.4125 45.261,5.8925 45.539,6.2445 C45.817,6.5955 46.196,6.7715 46.675,6.7715 C47.156,6.7715 47.532,6.5975 47.803,6.2495 C48.072,5.9005 48.208,5.4195 48.208,4.8035 C48.208,4.1885 48.072,3.7075 47.803,3.3585 C47.532,3.0095 47.156,2.8365 46.675,2.8365 C46.196,2.8365 45.817,3.0115 45.539,3.3635 M45.876,7.2815 C45.578,7.1175 45.347,6.8885 45.181,6.5955 L45.102,6.5955 L45.102,7.4355 L44.302,7.4355 L44.302,0.0825 L45.142,0.0825 L45.142,3.0025 L45.22,3.0025 C45.362,2.7185 45.583,2.4945 45.881,2.3285 C46.179,2.1625 46.509,2.0795 46.87,2.0795 C47.54,2.0795 48.076,2.3265 48.477,2.8215 C48.877,3.3165 49.077,3.9765 49.077,4.8035 C49.077,5.6275 48.876,6.2875 48.474,6.7835 C48.072,7.2805 47.537,7.5285 46.87,7.5285 C46.505,7.5285 46.174,7.4465 45.876,7.2815" id="Fill-22"></path>
                    <path d="M50.7246,9.3381 C50.6806,9.3361 50.6366,9.3321 50.5926,9.3281 C50.5486,9.3221 50.5076,9.3171 50.4686,9.3111 L50.4686,8.5931 C50.5206,8.6031 50.5776,8.6091 50.6396,8.6121 C50.7016,8.6151 50.7616,8.6171 50.8206,8.6171 C51.0606,8.6171 51.2546,8.5531 51.4016,8.4241 C51.5476,8.2961 51.6756,8.0721 51.7866,7.7531 L51.8846,7.4411 L49.9366,2.1721 L50.8446,2.1721 L52.2896,6.5031 L52.3686,6.5031 L53.8086,2.1721 L54.7026,2.1721 L52.6466,7.7581 C52.4216,8.3701 52.1816,8.7861 51.9256,9.0081 C51.6706,9.2301 51.3096,9.3401 50.8446,9.3401 C50.8086,9.3401 50.7686,9.3391 50.7246,9.3381" id="Fill-24"></path>
                </g>
            </g>
        </g>
    </g>
</svg>