<?xml version="1.0" encoding="UTF-8"?>
<svg width="88px" height="79px" viewBox="0 0 88 79" version="1.1" xmlns="http://www.w3.org/2000/svg" xmlns:xlink="http://www.w3.org/1999/xlink">
    <!-- Generator: sketchtool 40.1 (33804) - http://www.bohemiancoding.com/sketch -->
    <title>14FC1FEE-704C-4807-AD3B-3C92E9460EAC</title>
    <desc>Created with sketchtool.</desc>
    <defs>
        <polygon id="path-1" points="0 78.4551469 87.0939167 78.4551469 87.0939167 0.000740625 0 0.000740625"></polygon>
    </defs>
    <g id="Welcome" stroke="none" stroke-width="1" fill="none" fill-rule="evenodd" opacity="0.154442631">
        <g id="Desktop-HD" transform="translate(-702.000000, -350.000000)">
            <g id="Page-1" transform="translate(702.000000, 350.000000)">
                <path d="M86.8434806,20.7925531 L82.5813694,25.7201781 C81.7432861,26.6903969 80.1808417,26.7619906 79.2562306,25.8757094 L74.5491194,21.3578969 C74.1387306,20.9628969 74.1238972,20.3111469 74.5194528,19.9013344 C74.7098139,19.7038344 74.9595083,19.5976781 75.2141472,19.5853344 C75.4860917,19.5729906 75.7654528,19.6692719 75.9780639,19.8717094 L79.7852861,23.5279281 L79.7185361,22.0812406 C79.3922028,15.1020844 73.4415639,9.68564688 66.4501194,10.0115219 C63.463675,10.1497719 60.6132028,11.3397094 58.4252861,13.3640844 C58.0074806,13.7492094 57.3548139,13.7220531 56.9691472,13.3073031 C56.5810083,12.8900844 56.6057306,12.2383344 57.0235361,11.8532094 C59.569925,9.50049063 62.8827028,8.11552188 66.3537028,7.95505313 C74.4798972,7.57733438 81.3996472,13.8701781 81.7778972,21.9849594 L81.8446472,23.4217719 L85.2835083,19.4470844 C85.6543417,19.0175219 86.3070083,18.9706156 86.737175,19.3409281 C87.1673417,19.7112406 87.2143139,20.3629906 86.8434806,20.7925531 L86.8434806,20.7925531 Z" id="Fill-1" fill="#AAAAAA"></path>
                <mask id="mask-2" fill="white">
                    <use xlink:href="#path-1"></use>
                </mask>
                <g id="Clip-4"></g>
                <path d="M16.2845278,69.5577719 L73.0220278,69.5577719 L73.0220278,39.5723344 L16.2845278,39.5723344 L16.2845278,69.5577719 Z M74.9973333,38.5848344 C74.9973333,38.0417094 74.5548056,37.5973344 74.0109167,37.5973344 L15.2956389,37.5973344 C14.75175,37.5973344 14.3092222,38.0417094 14.3092222,38.5848344 L14.3092222,70.5452719 C14.3092222,71.0908656 14.75175,71.5327719 15.2956389,71.5327719 L74.0109167,71.5327719 C74.5548056,71.5327719 74.9973333,71.0908656 74.9973333,70.5452719 L74.9973333,38.5848344 Z" id="Fill-3" fill="#AAAAAA" mask="url(#mask-2)"></path>
                <path d="M84.3017889,66.7658625 C84.3017889,72.12305 79.9358444,76.4803938 74.5711222,76.4803938 L11.7049833,76.4803938 C6.34026111,76.4803938 1.97431667,72.12305 1.97431667,66.7658625 L1.97431667,42.3647375 C1.97431667,37.0100188 6.34026111,32.652675 11.7049833,32.652675 L74.5711222,32.652675 C79.9358444,32.652675 84.3017889,37.0100188 84.3017889,42.3647375 L84.3017889,66.7658625 Z M74.5711222,30.677675 L11.7049833,30.677675 C5.25001111,30.677675 -0.000988888889,35.9213 -0.000988888889,42.3647375 L-0.000988888889,66.7658625 C-0.000988888889,73.2117688 5.25001111,78.4553938 11.7049833,78.4553938 L74.5711222,78.4553938 C81.0260944,78.4553938 86.2770944,73.2117688 86.2770944,66.7658625 L86.2770944,42.3647375 C86.2770944,35.9213 81.0260944,30.677675 74.5711222,30.677675 L74.5711222,30.677675 Z" id="Fill-5" fill="#AAAAAA" mask="url(#mask-2)"></path>
                <path d="M79.5385583,47.6029312 C79.0243361,47.6029312 78.6065306,48.02015 78.6065306,48.5361187 L78.6065306,60.5959625 C78.6065306,61.1094625 79.0243361,61.52915 79.5385583,61.52915 C80.0527806,61.52915 80.4705861,61.1094625 80.4705861,60.5959625 L80.4705861,48.5361187 C80.4705861,48.02015 80.0527806,47.6029312 79.5385583,47.6029312" id="Fill-6" fill="#AAAAAA" mask="url(#mask-2)"></path>
                <path d="M11.392,54.4663031 C11.392,56.0413656 10.1138611,57.3201781 8.53411111,57.3201781 C6.95683333,57.3201781 5.67869444,56.0413656 5.67869444,54.4663031 C5.67869444,52.8912406 6.95683333,51.6124281 8.53411111,51.6124281 C10.1138611,51.6124281 11.392,52.8912406 11.392,54.4663031" id="Fill-7" fill="#AAAAAA" mask="url(#mask-2)"></path>
                <path d="M31.3106944,5.79687187 L19.2338889,5.79687187 C18.7171944,5.79687187 18.2993889,6.21409062 18.2993889,6.73005937 C18.2993889,7.24355937 18.7171944,7.66324687 19.2338889,7.66324687 L31.3106944,7.66324687 C31.8249167,7.66324687 32.2427222,7.24355937 32.2427222,6.73005937 C32.2427222,6.21409062 31.8249167,5.79687187 31.3106944,5.79687187" id="Fill-8" fill="#AAAAAA" mask="url(#mask-2)"></path>
                <path d="M42.2618972,25.5468719 L42.2618972,12.2501844 C42.2618972,11.7070594 41.8193694,11.2626844 41.2754806,11.2626844 L9.26761944,11.2626844 C8.72373056,11.2626844 8.28120278,11.7070594 8.28120278,12.2501844 L8.28120278,25.5468719 L10.2565083,25.5468719 L10.2565083,13.2376844 L40.2865917,13.2376844 L40.2865917,25.5468719 L42.2618972,25.5468719 Z" id="Fill-9" fill="#AAAAAA" mask="url(#mask-2)"></path>
                <path d="M13.054075,1.97450625 L37.4895194,1.97450625 C42.8542417,1.97450625 47.2177139,6.33185 47.2177139,11.6890375 L47.2177139,25.5461312 L49.1930194,25.5461312 L49.1930194,11.6890375 C49.1930194,5.24313125 43.9420194,-0.00049375 37.4895194,-0.00049375 L13.054075,-0.00049375 C6.601575,-0.00049375 1.350575,5.24313125 1.350575,11.6890375 L1.350575,25.5461312 L3.32340833,25.5461312 L3.32340833,11.6890375 C3.32340833,6.33185 7.68935278,1.97450625 13.054075,1.97450625" id="Fill-10" fill="#AAAAAA" mask="url(#mask-2)"></path>
                <path d="M25.2720444,60.4233969 L64.7435444,60.4233969" id="Stroke-11" stroke="#AAAAAA" stroke-width="0.7" stroke-linecap="round" mask="url(#mask-2)"></path>
                <path d="M36.4217667,53.3274687 C36.41435,53.808875 36.4687389,54.2878125 36.5874056,54.737125 C37.0126278,56.356625 38.0311833,57.7736875 39.2203222,59.082125 L38.6566556,57.9218125 C37.9199333,56.4035312 37.1757944,54.8605625 36.4217667,53.3274687 M41.0992111,62.8568438 C40.4144056,62.8568438 39.7419611,62.4470313 39.3439333,62.0569688 C37.3735722,60.1264063 35.39085,58.0131563 34.6615444,55.24075 C34.2684611,53.7372813 34.3821833,51.9894063 35.0224889,50.5130938 C34.7159333,49.9033125 34.4069056,49.3009375 34.0978778,48.7010313 C33.5366833,49.1824375 32.9656,49.8835625 32.4365444,50.7525625 C32.1472944,51.2191563 31.5391278,51.3722188 31.0694056,51.083375 C30.5972111,50.797 30.45135,50.1872188 30.7356556,49.7181563 C31.4328222,48.575125 32.5725167,47.0667188 34.0509056,46.3705313 L34.9161833,45.9631875 L35.3562389,46.8075 C35.6726833,47.4123438 35.9891278,48.022125 36.3031,48.6393125 C36.8099056,48.1505 37.4205444,47.7629063 38.1374889,47.5185 C39.1758222,47.163 39.8902944,47.370375 40.3056278,47.5999688 C40.7827667,47.8665938 41.1486556,48.3085 41.4304889,48.9577813 C41.6678222,49.5009062 41.8186278,50.076125 41.9644889,50.6538125 C42.1202389,51.2635938 42.2636278,51.8412813 42.5281556,52.31775 C42.7506556,52.7250938 43.2104889,53.0805938 43.6159333,53.1620625 C43.8854056,53.216375 43.9991278,53.1275 44.0436278,53.0929375 C44.1177944,53.0336875 44.1845444,52.9620938 44.2488222,52.8954375 C44.5232389,52.614 44.9385722,52.189375 45.6036,52.1276563 C45.9694889,52.0955625 46.2785167,52.1918438 46.4985444,52.268375 C46.9583778,51.9894063 47.8607389,50.8883438 48.1722389,50.5081563 C48.6938778,49.8761563 49.2352944,49.2342813 50.0115722,49.7379063 C50.7334611,50.2094375 50.4812944,50.8809375 50.0634889,51.7203125 C50.16485,52.1079063 50.4986,52.4584688 50.8892111,52.5498125 C51.3416278,52.6683125 51.9127111,52.4140313 52.1525167,52.00175 C52.2514056,51.8314063 52.3181556,51.6388438 52.3849056,51.44875 C52.4961556,51.1352188 52.6148222,50.826625 52.7854056,50.5427188 C53.2823222,49.6984063 54.3725722,49.068875 55.3960722,49.5675625 C55.7817389,49.7527188 56.0042389,50.056375 56.1501,50.2563438 C58.3602667,51.9276875 59.2947667,51.4339375 59.9746278,51.0735 L60.2935444,50.9155 C60.7929333,50.6957813 61.3813222,50.9105625 61.6087667,51.4141875 C61.8337389,51.9153438 61.6112389,52.5029063 61.1093778,52.7275625 C60.0265444,53.295375 58.1971,54.2655938 55.0549056,51.972125 C54.8249889,51.8067188 54.6766556,51.6116875 54.5678778,51.4610938 C54.5456278,51.4857813 54.5184333,51.5203438 54.4937111,51.557375 C54.3898778,51.7326563 54.3256,51.9301563 54.25885,52.1227188 C54.1476,52.4239063 54.0338778,52.7250938 53.8756556,53.0015938 C53.1859056,54.1767188 51.7322389,54.7914375 50.4244333,54.4828438 C49.6333222,54.2952188 48.9559333,53.789125 48.5282389,53.1225625 C47.6876833,53.986625 46.9039889,54.4828438 46.0856833,54.2285625 L45.7791278,54.124875 C45.7939611,54.1594375 45.7272111,54.2310313 45.6752944,54.282875 C45.5467389,54.41125 45.4181833,54.5420938 45.2772667,54.6507188 C44.7136,55.0975625 43.9867667,55.2629688 43.22285,55.1099063 C42.24385,54.914875 41.2895722,54.194 40.7852389,53.275625 C40.3971,52.5745 40.2116833,51.8462188 40.0336833,51.1401563 C39.9150167,50.6661563 39.7988222,50.1921563 39.6059889,49.7477813 C39.4650722,49.4293125 39.3637111,49.3527813 39.3389889,49.3379688 C39.2895444,49.3108125 39.1016556,49.2885938 38.7802667,49.3996875 C38.1523222,49.6144688 37.6479889,50.02675 37.2697389,50.5550625 C38.3451556,52.71275 39.4082111,54.9074688 40.4490167,57.05775 L42.6542389,61.5953125 L42.4416278,62.0298125 C42.2314889,62.459375 41.8408778,62.7531563 41.3736278,62.834625 C41.2821556,62.8494375 41.1906833,62.8568438 41.0992111,62.8568438" id="Fill-12" fill="#A0A0A0" mask="url(#mask-2)"></path>
            </g>
        </g>
    </g>
</svg>