<?xml version="1.0" encoding="UTF-8"?>
<svg width="55px" height="64px" viewBox="0 0 55 64" version="1.1" xmlns="http://www.w3.org/2000/svg" xmlns:xlink="http://www.w3.org/1999/xlink">
    <!-- Generator: sketchtool 40.1 (33804) - http://www.bohemiancoding.com/sketch -->
    <title>EA68E635-42BB-4426-8684-2CCAF67D0320</title>
    <desc>Created with sketchtool.</desc>
    <defs>
        <polygon id="path-1" points="54.9788462 55.4050021 54.9788462 0.0204575463 0 0.0204575463 1.1467523e-19 55.4050021 54.9788462 55.4050021"></polygon>
    </defs>
    <g id="Welcome" stroke="none" stroke-width="1" fill="none" fill-rule="evenodd">
        <g id="Desktop-HD" transform="translate(-2221.000000, -309.000000)">
            <g id="Page-1" transform="translate(2221.000000, 309.000000)">
                <g id="Group-3" transform="translate(0.000000, 8.109712)">
                    <mask id="mask-2" fill="white">
                        <use xlink:href="#path-1"></use>
                    </mask>
                    <g id="Clip-2"></g>
                    <path d="M27.4885769,51.8057526 C21.1001154,51.8057526 15.0945385,49.2997031 10.5781923,44.7478991 C6.06184615,40.198226 3.57203846,34.1483329 3.57415385,27.7127298 C3.57415385,14.4281107 14.3033846,3.61970709 27.4906923,3.61970709 C40.6758846,3.61970709 51.4051154,14.4281107 51.4051154,27.7127298 C51.4051154,40.9973489 40.6758846,51.8057526 27.4885769,51.8057526 M27.4906923,0.0204575463 C12.3318462,0.0204575463 -0.000846153845,12.4441549 -0.000846153845,27.7127298 C-0.000846153845,35.1115424 2.85915385,42.0649771 8.05030769,47.2944374 C13.2435769,52.5238977 20.1460769,55.4050021 27.4885769,55.4050021 C42.6453077,55.4050021 54.9801154,42.9834357 54.9801154,27.7127298 C54.9801154,12.4441549 42.6474231,0.0204575463 27.4906923,0.0204575463" id="Fill-1" fill="#0F1011" mask="url(#mask-2)"></path>
                </g>
                <path d="M36.3177692,29.8234798 L28.8800769,35.1147389 L18.5591154,26.5566654 C17.7975769,25.925891 16.6700769,26.0345717 16.0418077,26.8038607 C15.4156538,27.5710187 15.5256538,28.7068387 16.2871923,29.3376131 L27.6637308,38.7672633 C27.9916154,39.0400306 28.3935385,39.1764142 28.7975769,39.1764142 C29.1593077,39.1764142 29.5189231,39.0677335 29.8298846,38.8461101 L38.3802692,32.7642521 C39.1841154,32.1910146 39.3766154,31.0679805 38.8075769,30.2560716 C38.2406538,29.4441628 37.1237308,29.2523733 36.3177692,29.8234798" id="Fill-4" fill="#0F1011"></path>
                <path d="M23.4974808,5.32748601 L31.9928654,5.32748601 C33.4545962,5.32748601 34.6370962,4.13412914 34.6370962,2.66374301 C34.6370962,1.19335687 33.4545962,0 31.9928654,0 L23.4974808,0 C22.0378654,0 20.85325,1.19335687 20.85325,2.66374301 C20.85325,4.13412914 22.0378654,5.32748601 23.4974808,5.32748601" id="Fill-6" fill="#0F1011"></path>
            </g>
        </g>
    </g>
</svg>